{"glyphs":{"0":{"ha":1206,"x_min":0,"x_max":1111,"o":"m 1042 556 q 1003 744 1042 656 q 898 898 964 832 q 744 1003 832 964 q 556 1042 656 1042 q 369 1003 457 1042 q 214 899 281 965 q 108 745 147 833 q 69 556 69 657 q 108 367 69 456 q 212 212 146 278 q 367 108 278 146 q 556 69 456 69 q 745 108 657 69 q 899 214 833 147 q 1003 369 965 281 q 1042 556 1042 457 m 1111 556 q 1067 340 1111 440 q 948 163 1024 239 q 771 44 872 88 q 556 0 669 0 q 340 44 440 0 q 163 163 239 88 q 44 340 88 239 q 0 556 0 440 q 44 771 0 669 q 163 948 88 872 q 340 1067 239 1024 q 556 1111 440 1111 q 771 1067 669 1111 q 948 948 872 1024 q 1067 771 1024 872 q 1111 556 1111 669 z "},"1":{"ha":1206,"x_min":0,"x_max":1111,"o":"m 764 417 l 694 278 l 625 417 l 486 417 l 417 278 l 347 417 l 286 417 q 324 333 297 371 q 386 267 350 294 q 466 224 422 239 q 556 208 510 208 q 645 224 601 208 q 725 267 689 239 q 788 333 761 294 q 825 417 814 371 l 764 417 m 903 486 q 875 352 903 415 q 800 242 847 289 q 690 167 753 194 q 556 139 626 139 q 420 166 483 139 q 310 240 357 193 q 235 351 263 288 q 208 486 208 414 l 903 486 m 486 683 q 456 610 486 640 q 382 579 425 579 q 308 610 339 579 q 278 683 278 640 q 301 748 278 719 q 358 785 324 776 l 290 854 l 339 903 l 486 756 l 469 739 q 486 683 486 714 m 833 683 q 803 610 833 640 q 729 579 772 579 q 656 610 686 579 q 625 683 625 640 q 651 753 625 722 l 638 767 l 785 914 l 833 865 l 753 785 q 810 748 788 776 q 833 683 833 719 m 1042 556 q 1003 744 1042 656 q 898 898 964 832 q 744 1003 832 964 q 556 1042 656 1042 q 369 1003 457 1042 q 214 899 281 965 q 108 745 147 833 q 69 556 69 657 q 108 367 69 456 q 212 212 146 278 q 367 108 278 146 q 556 69 456 69 q 745 108 657 69 q 899 214 833 147 q 1003 369 965 281 q 1042 556 1042 457 m 1111 556 q 1067 340 1111 440 q 948 163 1024 239 q 771 44 872 88 q 556 0 669 0 q 340 44 440 0 q 163 163 239 88 q 44 340 88 239 q 0 556 0 440 q 44 771 0 669 q 163 948 88 872 q 340 1067 239 1024 q 556 1111 440 1111 q 771 1067 669 1111 q 948 948 872 1024 q 1067 771 1024 872 q 1111 556 1111 669 z "},"2":{"ha":1194,"x_min":0,"x_max":1104,"o":"m 553 725 q 522 651 553 682 q 449 621 492 621 q 376 651 407 621 q 346 725 346 682 q 376 799 346 768 q 449 829 407 829 q 522 799 492 829 q 553 725 553 768 m 760 656 q 729 583 760 614 q 656 553 699 553 q 583 583 614 553 q 553 656 553 614 q 583 729 553 699 q 656 760 614 760 q 729 729 699 760 q 760 656 760 699 m 492 138 l 492 281 q 415 298 451 286 q 346 328 379 310 l 346 138 l 492 138 m 568 138 l 568 69 q 801 138 696 74 l 568 138 m 760 207 l 760 328 q 695 299 728 310 q 628 283 663 289 l 628 207 l 760 207 m 1036 553 q 998 740 1036 651 q 894 894 960 828 q 740 998 828 960 q 553 1036 651 1036 q 365 998 453 1036 q 212 894 278 960 q 108 740 146 828 q 69 553 69 651 q 124 329 69 435 q 276 156 179 224 l 276 374 q 138 656 139 488 l 221 656 q 249 535 221 590 q 322 440 276 481 q 428 376 368 399 q 553 353 488 353 q 678 376 618 353 q 783 440 738 400 q 856 536 829 481 q 883 656 883 592 l 967 656 q 829 374 967 486 l 829 156 q 981 329 925 224 q 1036 553 1036 435 m 1104 553 q 1060 340 1104 440 q 942 163 1017 239 q 767 44 867 88 q 553 0 667 0 q 285 69 413 0 l 276 69 l 276 74 q 161 163 213 111 q 74 275 110 214 q 19 407 39 336 q 0 553 0 478 q 23 708 0 633 q 88 849 46 783 q 188 966 129 914 q 319 1053 247 1018 l 288 1085 l 435 1231 l 483 1182 l 378 1076 q 553 1104 469 1104 q 746 1069 658 1104 l 633 1182 l 682 1231 l 829 1085 l 793 1050 q 922 964 864 1017 q 1019 845 979 911 q 1082 704 1060 779 q 1104 553 1104 629 z "},"3":{"ha":1206,"x_min":0,"x_max":1111,"o":"m 486 660 q 456 586 486 617 q 382 556 425 556 q 308 586 339 556 q 278 660 278 617 q 308 732 278 701 q 379 764 338 763 l 290 854 l 339 903 l 486 756 l 460 729 q 486 660 486 699 m 833 660 q 803 586 833 617 q 729 556 772 556 q 656 586 686 556 q 625 660 625 617 q 657 735 625 703 l 638 756 l 785 903 l 833 854 l 743 763 q 807 728 781 758 q 833 660 833 699 m 306 139 q 556 69 421 69 q 806 139 690 69 l 306 139 m 833 208 q 818 300 833 250 l 293 300 q 278 208 278 250 l 833 208 m 761 394 q 556 486 679 486 q 350 394 431 486 l 761 394 m 1042 556 q 1003 744 1042 656 q 898 898 964 832 q 744 1003 832 964 q 556 1042 656 1042 q 369 1003 457 1042 q 214 899 281 965 q 108 745 147 833 q 69 556 69 657 q 208 215 69 354 q 238 348 210 286 q 314 456 267 410 q 424 528 361 501 q 556 556 486 556 q 688 528 625 556 q 797 456 750 501 q 873 348 844 410 q 903 215 901 286 q 1042 556 1042 354 m 1111 556 q 1067 340 1111 440 q 948 163 1024 239 q 771 44 872 88 q 556 0 669 0 q 340 44 440 0 q 163 163 239 88 q 44 340 88 239 q 0 556 0 440 q 44 771 0 669 q 163 948 88 872 q 340 1067 239 1024 q 556 1111 440 1111 q 771 1067 669 1111 q 948 948 872 1024 q 1067 771 1024 872 q 1111 556 1111 669 z "},"4":{"ha":1206,"x_min":0,"x_max":1111,"o":"m 486 660 q 456 586 486 617 q 382 556 425 556 q 308 586 339 556 q 278 660 278 617 q 308 732 278 701 q 379 764 338 763 l 290 854 l 339 903 l 486 756 l 460 729 q 486 660 486 699 m 833 660 q 803 586 833 617 q 729 556 772 556 q 656 586 686 556 q 625 660 625 617 q 657 735 625 703 l 638 756 l 785 903 l 833 854 l 743 763 q 807 728 781 758 q 833 660 833 699 m 347 208 l 347 278 l 268 278 l 268 208 l 347 208 m 306 139 q 556 69 421 69 q 806 139 690 69 l 306 139 m 347 347 l 347 417 l 268 417 l 268 347 l 347 347 m 532 208 l 532 278 l 417 278 l 417 208 l 532 208 m 532 347 l 532 417 l 417 417 l 417 347 l 532 347 m 694 208 l 694 278 l 592 278 l 592 208 l 694 208 m 694 347 l 694 417 l 592 417 l 592 347 l 694 347 m 843 208 l 843 278 l 764 278 l 764 208 l 843 208 m 1042 556 q 1003 744 1042 656 q 898 898 964 832 q 744 1003 832 964 q 556 1042 656 1042 q 369 1003 457 1042 q 214 899 281 965 q 108 745 147 833 q 69 556 69 657 q 208 215 69 354 l 208 486 l 903 486 l 903 215 q 1042 556 1042 354 m 843 347 l 843 417 l 764 417 l 764 347 l 843 347 m 1111 556 q 1067 340 1111 440 q 948 163 1024 239 q 771 44 872 88 q 556 0 669 0 q 189 139 344 0 l 185 139 l 185 142 q 0 556 0 306 q 44 771 0 669 q 163 948 88 872 q 340 1067 239 1024 q 556 1111 440 1111 q 771 1067 669 1111 q 948 948 872 1024 q 1067 771 1024 872 q 1111 556 1111 669 z "},"5":{"ha":1206,"x_min":0,"x_max":1111,"o":"m 903 417 l 833 417 l 764 278 l 694 417 l 417 417 l 347 278 l 278 417 l 208 417 l 208 486 l 903 486 l 903 417 m 486 660 q 456 586 486 617 q 382 556 425 556 q 308 586 339 556 q 278 660 278 617 q 308 732 278 701 q 379 764 338 763 l 290 854 l 339 903 l 486 756 l 460 729 q 486 660 486 699 m 833 660 q 803 586 833 617 q 729 556 772 556 q 656 586 686 556 q 625 660 625 617 q 657 735 625 703 l 638 756 l 785 903 l 833 854 l 743 763 q 807 728 781 758 q 833 660 833 699 m 1042 556 q 1003 744 1042 656 q 898 898 964 832 q 744 1003 832 964 q 556 1042 656 1042 q 369 1003 457 1042 q 214 899 281 965 q 108 745 147 833 q 69 556 69 657 q 108 367 69 456 q 212 212 146 278 q 367 108 278 146 q 556 69 456 69 q 745 108 657 69 q 899 214 833 147 q 1003 369 965 281 q 1042 556 1042 457 m 1111 556 q 1067 340 1111 440 q 948 163 1024 239 q 771 44 872 88 q 556 0 669 0 q 340 44 440 0 q 163 163 239 88 q 44 340 88 239 q 0 556 0 440 q 44 771 0 669 q 163 948 88 872 q 340 1067 239 1024 q 556 1111 440 1111 q 771 1067 669 1111 q 948 948 872 1024 q 1067 771 1024 872 q 1111 556 1111 669 z "},"6":{"ha":1204,"x_min":0,"x_max":1106,"o":"m 899 415 l 829 415 l 761 276 l 692 415 l 415 415 l 346 276 l 276 415 l 207 415 l 207 483 l 899 483 l 899 415 m 483 657 q 453 583 483 614 q 381 553 422 553 q 307 583 338 553 q 276 657 276 614 q 306 729 276 699 q 378 760 336 760 l 289 850 l 338 899 l 483 753 l 457 726 q 483 657 483 696 m 829 657 q 799 583 829 614 q 726 553 768 553 q 653 583 683 553 q 622 657 622 614 q 654 732 622 700 l 635 753 l 781 899 l 829 850 l 739 760 q 803 725 778 754 q 829 657 829 696 m 1038 553 q 999 740 1038 651 q 894 894 960 828 q 740 999 828 960 q 553 1038 651 1038 q 366 999 454 1038 q 212 895 278 961 q 108 741 146 829 q 69 553 69 653 q 108 365 69 453 q 212 212 146 278 q 365 108 278 146 q 553 69 453 69 q 741 108 653 69 q 895 212 829 146 q 999 366 961 278 q 1038 553 1038 454 m 1106 553 q 1062 340 1106 440 q 943 163 1018 239 q 767 44 868 88 q 553 0 667 0 q 338 44 439 0 q 163 163 238 88 q 44 338 88 238 q 0 553 0 439 q 139 918 0 763 l 139 1244 l 367 1074 q 553 1106 463 1106 q 729 1078 638 1106 l 979 1244 l 961 926 q 1106 553 1106 765 z "},"7":{"ha":1201,"x_min":0,"x_max":1100,"o":"m 894 550 q 867 417 894 479 q 793 308 840 356 q 683 234 746 261 q 550 207 621 207 q 417 234 479 207 q 308 308 354 261 q 234 417 261 354 q 207 550 207 479 l 275 550 q 297 443 275 493 q 356 356 318 393 q 443 297 393 318 q 550 275 493 275 q 656 297 606 275 q 743 356 706 318 q 803 443 781 393 q 825 550 825 493 l 894 550 m 482 653 q 451 581 482 611 q 378 550 421 550 q 306 581 336 550 q 275 653 275 611 q 306 726 275 696 q 378 757 336 757 q 451 726 421 757 q 482 653 482 696 m 825 653 q 794 581 825 611 q 722 550 764 550 q 649 581 679 550 q 619 653 619 611 q 649 726 619 696 q 722 757 679 757 q 794 726 764 757 q 825 653 825 696 m 1032 550 q 984 758 1032 660 q 849 928 936 857 q 550 894 713 894 q 251 928 386 894 q 117 758 164 857 q 69 550 69 660 q 108 364 69 451 q 211 211 146 276 q 364 108 276 146 q 550 69 451 69 q 738 108 650 69 q 891 213 825 147 q 994 365 957 278 q 1032 550 1032 453 m 771 978 q 550 1032 667 1032 q 329 978 433 1032 q 437 967 382 971 q 550 963 492 963 q 663 967 608 963 q 771 978 718 971 m 1032 1100 q 992 1154 1032 1129 q 884 1198 951 1179 q 730 1227 817 1217 q 550 1238 643 1238 q 372 1227 458 1238 q 217 1198 285 1217 q 110 1154 150 1179 q 69 1100 69 1129 q 231 997 69 1038 q 550 1100 375 1100 q 869 997 725 1100 q 1032 1100 1032 1036 m 1100 550 q 1056 338 1100 438 q 938 163 1013 238 q 763 44 863 88 q 550 0 663 0 q 338 44 438 0 q 163 163 238 88 q 44 338 88 238 q 0 550 0 438 q 172 950 0 788 q 0 1100 0 1010 q 47 1181 0 1143 q 170 1247 93 1219 q 346 1291 247 1275 q 550 1307 444 1307 q 754 1291 656 1307 q 930 1247 853 1275 q 1053 1181 1007 1219 q 1100 1100 1100 1143 q 928 950 1100 1010 q 1100 550 1100 788 z "},"8":{"ha":1206,"x_min":0,"x_max":1111,"o":"m 831 519 q 729 486 785 486 q 661 499 693 486 q 606 536 629 513 q 569 592 582 560 q 556 660 556 624 q 542 594 556 625 q 506 538 529 563 q 450 500 482 514 q 382 486 418 486 q 281 519 326 486 q 312 422 288 467 q 373 346 336 378 q 456 296 410 314 q 556 278 503 278 q 654 297 607 278 q 738 347 701 315 q 799 424 775 379 q 831 519 824 468 m 468 660 q 443 721 468 696 q 382 746 418 746 q 320 721 346 746 q 294 660 294 696 q 320 598 294 624 q 382 572 346 572 q 443 598 418 572 q 468 660 468 624 m 815 660 q 790 721 815 696 q 729 746 765 746 q 667 721 693 746 q 642 660 642 696 q 667 598 642 624 q 729 572 693 572 q 790 598 765 572 q 815 660 815 624 m 903 556 q 875 422 903 485 q 800 311 847 358 q 690 236 753 264 q 556 208 626 208 q 420 235 483 208 q 310 310 357 263 q 235 420 263 357 q 208 556 208 483 l 243 556 q 208 660 208 599 q 222 728 208 696 q 260 783 236 760 q 316 820 285 807 q 382 833 347 833 q 449 819 417 833 q 504 782 481 806 q 542 726 528 758 q 556 660 556 694 q 569 728 556 696 q 608 783 583 760 q 663 820 632 807 q 729 833 694 833 q 796 819 764 833 q 851 782 828 806 q 889 726 875 758 q 903 660 903 694 q 868 556 903 599 l 903 556 m 1042 556 q 1003 744 1042 656 q 898 898 964 832 q 744 1003 832 964 q 556 1042 656 1042 q 369 1003 457 1042 q 214 899 281 965 q 108 745 147 833 q 69 556 69 657 q 108 367 69 456 q 212 212 146 278 q 367 108 278 146 q 556 69 456 69 q 745 108 657 69 q 899 214 833 147 q 1003 369 965 281 q 1042 556 1042 457 m 1111 556 q 1067 340 1111 440 q 948 163 1024 239 q 771 44 872 88 q 556 0 669 0 q 340 44 440 0 q 163 163 239 88 q 44 340 88 239 q 0 556 0 440 q 44 771 0 669 q 163 948 88 872 q 340 1067 239 1024 q 556 1111 440 1111 q 771 1067 669 1111 q 948 948 872 1024 q 1067 771 1024 872 q 1111 556 1111 669 z "},"9":{"ha":1208,"x_min":0,"x_max":1110,"o":"m 901 556 q 874 422 901 485 q 800 311 847 358 q 690 236 753 264 q 556 208 626 208 q 420 235 483 208 q 310 310 357 263 q 235 420 263 357 q 208 556 208 483 l 278 556 q 299 447 278 497 q 358 358 321 396 q 447 299 396 321 q 556 278 497 278 q 662 300 611 278 q 750 360 713 322 q 810 448 788 397 q 832 556 832 499 l 901 556 m 486 660 q 456 586 486 617 q 382 556 425 556 q 308 586 339 556 q 278 660 278 617 q 308 732 278 701 q 379 763 338 763 l 289 853 l 339 901 l 486 754 l 460 728 q 486 660 486 701 m 832 660 q 801 586 832 617 q 729 556 771 556 q 656 586 686 556 q 625 660 625 617 q 657 735 625 703 l 636 754 l 783 901 l 832 853 l 742 763 q 806 728 781 757 q 832 660 832 699 m 1040 556 q 1001 742 1040 654 q 897 897 963 831 q 742 1001 831 963 q 556 1040 654 1040 q 367 1002 456 1040 q 213 898 279 964 q 108 744 147 832 q 69 556 69 656 q 108 367 69 456 q 212 212 146 278 q 367 108 278 146 q 556 69 456 69 q 744 108 656 69 q 898 213 832 147 q 1002 367 964 279 q 1040 556 1040 456 m 1110 556 q 1066 340 1110 440 q 947 163 1022 239 q 770 44 871 88 q 556 0 669 0 q 340 44 440 0 q 163 163 239 88 q 44 340 88 239 q 0 556 0 440 q 139 922 0 767 l 139 1249 l 367 1078 q 556 1110 465 1110 q 732 1081 646 1110 l 982 1249 l 965 929 q 1110 556 1110 768 z "}," ":{"ha":694,"x_min":0,"x_max":0,"o":""},"#":{"ha":1206,"x_min":0,"x_max":1111,"o":"m 486 660 q 456 586 486 617 q 382 556 425 556 q 308 586 339 556 q 278 660 278 617 q 308 732 278 701 q 379 764 338 763 l 290 854 l 339 903 l 486 756 l 460 729 q 486 660 486 699 m 833 660 q 803 586 833 617 q 729 556 772 556 q 656 586 686 556 q 625 660 625 617 q 657 735 625 703 l 638 756 l 785 903 l 833 854 l 743 763 q 807 728 781 758 q 833 660 833 699 m 347 208 l 347 278 l 268 278 l 268 208 l 347 208 m 306 139 q 556 69 421 69 q 806 139 690 69 l 306 139 m 347 347 l 347 417 l 268 417 l 268 347 l 347 347 m 532 208 l 532 278 l 417 278 l 417 208 l 532 208 m 532 347 l 532 417 l 417 417 l 417 347 l 532 347 m 694 208 l 694 278 l 592 278 l 592 208 l 694 208 m 694 347 l 694 417 l 592 417 l 592 347 l 694 347 m 843 208 l 843 278 l 764 278 l 764 208 l 843 208 m 1042 556 q 1003 744 1042 656 q 898 898 964 832 q 744 1003 832 964 q 556 1042 656 1042 q 369 1003 457 1042 q 214 899 281 965 q 108 745 147 833 q 69 556 69 657 q 208 215 69 354 l 208 486 l 903 486 l 903 215 q 1042 556 1042 354 m 843 347 l 843 417 l 764 417 l 764 347 l 843 347 m 1111 556 q 1067 340 1111 440 q 948 163 1024 239 q 771 44 872 88 q 556 0 669 0 q 189 139 344 0 l 185 139 l 185 142 q 0 556 0 306 q 44 771 0 669 q 163 948 88 872 q 340 1067 239 1024 q 556 1111 440 1111 q 771 1067 669 1111 q 948 948 872 1024 q 1067 771 1024 872 q 1111 556 1111 669 z "},"%":{"ha":1194,"x_min":0,"x_max":1104,"o":"m 553 725 q 522 651 553 682 q 449 621 492 621 q 376 651 407 621 q 346 725 346 682 q 376 799 346 768 q 449 829 407 829 q 522 799 492 829 q 553 725 553 768 m 760 656 q 729 583 760 614 q 656 553 699 553 q 583 583 614 553 q 553 656 553 614 q 583 729 553 699 q 656 760 614 760 q 729 729 699 760 q 760 656 760 699 m 492 138 l 492 281 q 415 298 451 286 q 346 328 379 310 l 346 138 l 492 138 m 568 138 l 568 69 q 801 138 696 74 l 568 138 m 760 207 l 760 328 q 695 299 728 310 q 628 283 663 289 l 628 207 l 760 207 m 1036 553 q 998 740 1036 651 q 894 894 960 828 q 740 998 828 960 q 553 1036 651 1036 q 365 998 453 1036 q 212 894 278 960 q 108 740 146 828 q 69 553 69 651 q 124 329 69 435 q 276 156 179 224 l 276 374 q 138 656 139 488 l 221 656 q 249 535 221 590 q 322 440 276 481 q 428 376 368 399 q 553 353 488 353 q 678 376 618 353 q 783 440 738 400 q 856 536 829 481 q 883 656 883 592 l 967 656 q 829 374 967 486 l 829 156 q 981 329 925 224 q 1036 553 1036 435 m 1104 553 q 1060 340 1104 440 q 942 163 1017 239 q 767 44 867 88 q 553 0 667 0 q 285 69 413 0 l 276 69 l 276 74 q 161 163 213 111 q 74 275 110 214 q 19 407 39 336 q 0 553 0 478 q 23 708 0 633 q 88 849 46 783 q 188 966 129 914 q 319 1053 247 1018 l 288 1085 l 435 1231 l 483 1182 l 378 1076 q 553 1104 469 1104 q 746 1069 658 1104 l 633 1182 l 682 1231 l 829 1085 l 793 1050 q 922 964 864 1017 q 1019 845 979 911 q 1082 704 1060 779 q 1104 553 1104 629 z "},"&":{"ha":603,"x_min":0,"x_max":0,"o":""},"(":{"ha":1207,"x_min":0,"x_max":1111,"o":"m 486 660 q 456 586 486 617 q 382 556 425 556 q 308 586 339 556 q 278 660 278 617 q 308 733 278 703 q 382 764 339 764 q 456 733 425 764 q 486 660 486 703 m 833 660 q 803 586 833 617 q 729 556 772 556 q 656 586 686 556 q 625 660 625 617 q 656 733 625 703 q 729 764 686 764 q 803 733 772 764 q 833 660 833 703 m 833 208 q 811 316 833 265 q 751 404 789 367 q 663 464 714 442 q 556 486 613 486 q 448 464 499 486 q 360 404 397 442 q 300 316 322 367 q 278 208 278 265 l 215 208 q 556 69 354 69 q 896 208 757 69 l 833 208 m 1042 556 q 1003 744 1042 656 q 898 898 964 832 q 744 1003 832 964 q 556 1042 656 1042 q 369 1003 457 1042 q 214 899 281 965 q 108 745 147 833 q 69 556 69 657 q 208 215 69 354 q 238 348 210 286 q 314 456 267 410 q 424 528 361 501 q 556 556 486 556 q 688 528 625 556 q 797 456 750 501 q 873 348 844 410 q 903 215 901 286 q 1042 556 1042 354 m 1111 556 q 1067 340 1111 440 q 948 163 1024 239 q 771 44 872 88 q 556 0 669 0 q 340 44 440 0 q 163 163 239 88 q 44 340 88 239 q 0 556 0 440 q 44 771 0 669 q 163 948 88 872 q 340 1067 239 1024 q 556 1111 440 1111 q 771 1067 669 1111 q 948 948 872 1024 q 1067 771 1024 872 q 1111 556 1111 669 z "},")":{"ha":1207,"x_min":0,"x_max":1111,"o":"m 903 556 q 875 422 903 485 q 800 311 847 358 q 690 236 753 264 q 556 208 626 208 q 420 235 483 208 q 310 310 357 263 q 235 420 263 357 q 208 556 208 483 l 278 556 q 299 447 278 497 q 358 358 321 396 q 447 299 396 321 q 556 278 497 278 q 663 300 613 278 q 751 360 714 322 q 811 448 789 397 q 833 556 833 499 l 903 556 m 486 660 q 456 586 486 617 q 382 556 425 556 q 308 586 339 556 q 278 660 278 617 q 308 733 278 703 q 382 764 339 764 q 456 733 425 764 q 486 660 486 703 m 833 660 q 803 586 833 617 q 729 556 772 556 q 656 586 686 556 q 625 660 625 617 q 656 733 625 703 q 729 764 686 764 q 803 733 772 764 q 833 660 833 703 m 1042 556 q 1003 744 1042 656 q 898 898 964 832 q 744 1003 832 964 q 556 1042 656 1042 q 369 1003 457 1042 q 214 899 281 965 q 108 745 147 833 q 69 556 69 657 q 108 367 69 456 q 212 212 146 278 q 367 108 278 146 q 556 69 456 69 q 745 108 657 69 q 899 214 833 147 q 1003 369 965 281 q 1042 556 1042 457 m 1111 556 q 1067 340 1111 440 q 948 163 1024 239 q 771 44 872 88 q 556 0 669 0 q 340 44 440 0 q 163 163 239 88 q 44 340 88 239 q 0 556 0 440 q 44 771 0 669 q 163 948 88 872 q 340 1067 239 1024 q 556 1111 440 1111 q 771 1067 669 1111 q 948 948 872 1024 q 1067 771 1024 872 q 1111 556 1111 669 z "},",":{"ha":1206,"x_min":0,"x_max":1111,"o":"m 232 682 q 208 556 208 615 q 235 420 208 483 q 310 310 263 357 q 420 235 357 263 q 556 208 483 208 q 682 232 615 208 l 232 682 m 903 556 q 875 689 903 626 q 799 799 847 751 q 689 875 751 847 q 556 903 626 903 q 429 879 496 903 l 879 429 q 903 556 903 496 m 1111 556 q 1067 340 1111 440 q 948 163 1024 239 q 771 44 872 88 q 556 0 669 0 q 340 44 440 0 q 163 163 239 88 q 44 340 88 239 q 0 556 0 440 q 44 771 0 669 q 163 948 88 872 q 340 1067 239 1024 q 556 1111 440 1111 q 771 1067 669 1111 q 948 948 872 1024 q 1067 771 1024 872 q 1111 556 1111 669 z "},".":{"ha":1206,"x_min":0,"x_max":1111,"o":"m 694 556 q 683 501 694 526 q 653 456 672 475 q 610 427 635 438 q 556 417 585 417 q 456 456 496 417 q 417 556 417 496 q 427 610 417 585 q 456 653 438 635 q 501 683 475 672 q 556 694 526 694 q 654 654 614 694 q 694 556 694 614 m 903 556 q 875 689 903 626 q 799 799 847 751 q 689 875 751 847 q 556 903 626 903 q 422 875 485 903 q 311 800 358 847 q 236 690 264 753 q 208 556 208 626 q 235 420 208 483 q 310 310 263 357 q 420 235 357 263 q 556 208 483 208 q 690 236 626 208 q 800 311 753 264 q 875 422 847 358 q 903 556 903 485 m 1111 556 q 1067 340 1111 440 q 948 163 1024 239 q 771 44 872 88 q 556 0 669 0 q 340 44 440 0 q 163 163 239 88 q 44 340 88 239 q 0 556 0 440 q 44 771 0 669 q 163 948 88 872 q 340 1067 239 1024 q 556 1111 440 1111 q 771 1067 669 1111 q 948 948 872 1024 q 1067 771 1024 872 q 1111 556 1111 669 z "},"/":{"ha":1207,"x_min":0,"x_max":1111,"o":"m 793 208 l 758 149 l 278 426 l 313 486 l 793 208 m 486 660 q 456 586 486 617 q 382 556 425 556 q 308 586 339 556 q 278 660 278 617 q 308 733 278 703 q 382 764 339 764 q 456 733 425 764 q 486 660 486 703 m 833 660 q 803 586 833 617 q 729 556 772 556 q 656 586 686 556 q 625 660 625 617 q 656 733 625 703 q 729 764 686 764 q 803 733 772 764 q 833 660 833 703 m 1042 556 q 1003 744 1042 656 q 898 898 964 832 q 744 1003 832 964 q 556 1042 656 1042 q 369 1003 457 1042 q 214 899 281 965 q 108 745 147 833 q 69 556 69 657 q 108 367 69 456 q 212 212 146 278 q 367 108 278 146 q 556 69 456 69 q 745 108 657 69 q 899 214 833 147 q 1003 369 965 281 q 1042 556 1042 457 m 1111 556 q 1067 340 1111 440 q 948 163 1024 239 q 771 44 872 88 q 556 0 669 0 q 340 44 440 0 q 163 163 239 88 q 44 340 88 239 q 0 556 0 440 q 44 771 0 669 q 163 948 88 872 q 340 1067 239 1024 q 556 1111 440 1111 q 771 1067 669 1111 q 948 948 872 1024 q 1067 771 1024 872 q 1111 556 1111 669 z "},":":{"ha":1207,"x_min":0,"x_max":1111,"o":"m 903 556 q 875 422 903 485 q 800 311 847 358 q 690 236 753 264 q 556 208 626 208 q 420 235 483 208 q 310 310 357 263 q 235 420 263 357 q 208 556 208 483 l 278 556 q 299 447 278 497 q 358 358 321 396 q 447 299 396 321 q 556 278 497 278 q 663 300 613 278 q 751 360 714 322 q 811 448 789 397 q 833 556 833 499 l 903 556 m 486 660 q 456 586 486 617 q 382 556 425 556 q 308 586 339 556 q 278 660 278 617 q 308 733 278 703 q 382 764 339 764 q 456 733 425 764 q 486 660 486 703 m 833 660 q 803 586 833 617 q 729 556 772 556 q 656 586 686 556 q 625 660 625 617 q 656 733 625 703 q 729 764 686 764 q 803 733 772 764 q 833 660 833 703 m 1042 556 q 1003 744 1042 656 q 898 898 964 832 q 744 1003 832 964 q 556 1042 656 1042 q 369 1003 457 1042 q 214 899 281 965 q 108 745 147 833 q 69 556 69 657 q 108 367 69 456 q 212 212 146 278 q 367 108 278 146 q 556 69 456 69 q 745 108 657 69 q 899 214 833 147 q 1003 369 965 281 q 1042 556 1042 457 m 1111 556 q 1067 340 1111 440 q 948 163 1024 239 q 771 44 872 88 q 556 0 669 0 q 340 44 440 0 q 163 163 239 88 q 44 340 88 239 q 0 556 0 440 q 44 771 0 669 q 163 948 88 872 q 340 1067 239 1024 q 556 1111 440 1111 q 771 1067 669 1111 q 948 948 872 1024 q 1067 771 1024 872 q 1111 556 1111 669 z "},";":{"ha":1207,"x_min":0,"x_max":1111,"o":"m 903 556 q 875 422 903 485 q 800 311 847 358 q 690 236 753 264 q 556 208 626 208 q 420 235 483 208 q 310 310 357 263 q 235 420 263 357 q 208 556 208 483 l 278 556 q 299 447 278 497 q 358 358 321 396 q 447 299 396 321 q 556 278 497 278 q 663 300 613 278 q 751 360 714 322 q 811 448 789 397 q 833 556 833 499 l 903 556 m 486 625 l 278 625 l 278 694 l 486 694 l 486 625 m 833 660 q 803 586 833 617 q 729 556 772 556 q 656 586 686 556 q 625 660 625 617 q 656 733 625 703 q 729 764 686 764 q 803 733 772 764 q 833 660 833 703 m 1042 556 q 1003 744 1042 656 q 898 898 964 832 q 744 1003 832 964 q 556 1042 656 1042 q 369 1003 457 1042 q 214 899 281 965 q 108 745 147 833 q 69 556 69 657 q 108 367 69 456 q 212 212 146 278 q 367 108 278 146 q 556 69 456 69 q 745 108 657 69 q 899 214 833 147 q 1003 369 965 281 q 1042 556 1042 457 m 1111 556 q 1067 340 1111 440 q 948 163 1024 239 q 771 44 872 88 q 556 0 669 0 q 340 44 440 0 q 163 163 239 88 q 44 340 88 239 q 0 556 0 440 q 44 771 0 669 q 163 948 88 872 q 340 1067 239 1024 q 556 1111 440 1111 q 771 1067 669 1111 q 948 948 872 1024 q 1067 771 1024 872 q 1111 556 1111 669 z "},"A":{"ha":1207,"x_min":0,"x_max":1111,"o":"m 903 556 q 875 422 903 485 q 800 311 847 358 q 690 236 753 264 q 556 208 626 208 q 420 235 483 208 q 310 310 357 263 q 235 420 263 357 q 208 556 208 483 l 278 556 q 299 447 278 497 q 358 358 321 396 q 447 299 396 321 q 556 278 497 278 q 663 300 613 278 q 751 360 714 322 q 811 448 789 397 q 833 556 833 499 l 903 556 m 486 660 q 456 586 486 617 q 382 556 425 556 q 308 586 339 556 q 278 660 278 617 q 308 733 278 703 q 382 764 339 764 q 456 733 425 764 q 486 660 486 703 m 833 660 q 803 586 833 617 q 729 556 772 556 q 656 586 686 556 q 625 660 625 617 q 656 733 625 703 q 729 764 686 764 q 803 733 772 764 q 833 660 833 703 m 1042 556 q 1003 744 1042 656 q 898 898 964 832 q 744 1003 832 964 q 556 1042 656 1042 q 369 1003 457 1042 q 214 899 281 965 q 108 745 147 833 q 69 556 69 657 q 108 367 69 456 q 212 212 146 278 q 367 108 278 146 q 556 69 456 69 q 745 108 657 69 q 899 214 833 147 q 1003 369 965 281 q 1042 556 1042 457 m 1111 556 q 1067 340 1111 440 q 948 163 1024 239 q 771 44 872 88 q 556 0 669 0 q 340 44 440 0 q 163 163 239 88 q 44 340 88 239 q 0 556 0 440 q 44 771 0 669 q 163 948 88 872 q 340 1067 239 1024 q 556 1111 440 1111 q 771 1067 669 1111 q 948 948 872 1024 q 1067 771 1024 872 q 1111 556 1111 669 z "},"B":{"ha":1206,"x_min":0,"x_max":1111,"o":"m 903 556 q 875 422 903 485 q 800 311 847 358 q 690 236 753 264 q 556 208 626 208 q 420 235 483 208 q 310 310 357 263 q 235 420 263 357 q 208 556 208 483 l 278 556 q 299 447 278 497 q 358 358 321 396 q 447 299 396 321 q 556 278 497 278 q 663 300 613 278 q 751 360 714 322 q 811 448 789 397 q 833 556 833 499 l 903 556 m 1042 556 q 994 764 1042 671 l 903 764 l 903 694 q 888 639 903 664 q 849 595 874 614 q 794 566 825 576 q 729 556 763 556 q 665 566 696 556 q 609 595 633 576 q 570 639 585 614 q 556 694 556 664 q 541 639 556 664 q 502 595 526 614 q 447 566 478 576 q 382 556 415 556 q 317 566 349 556 q 262 595 286 576 q 223 639 238 614 q 208 694 208 664 l 208 764 l 117 764 q 69 556 69 671 q 108 367 69 456 q 212 212 146 278 q 367 108 278 146 q 556 69 456 69 q 745 108 657 69 q 899 214 833 147 q 1003 369 965 281 q 1042 556 1042 457 m 954 833 q 780 986 886 931 q 556 1042 674 1042 q 331 986 438 1042 q 157 833 225 931 l 954 833 m 1111 556 q 1067 340 1111 440 q 948 163 1024 239 q 771 44 872 88 q 556 0 669 0 q 340 44 440 0 q 163 163 239 88 q 44 340 88 239 q 0 556 0 440 q 69 825 0 697 l 69 833 l 75 833 q 163 949 111 897 q 278 1036 215 1000 q 412 1092 342 1072 q 556 1111 482 1111 q 699 1092 628 1111 q 833 1036 769 1072 q 948 949 896 1000 q 1036 833 1000 897 l 1042 833 l 1042 825 q 1111 556 1111 697 z "},"C":{"ha":1207,"x_min":0,"x_max":1111,"o":"m 833 347 l 278 347 l 278 417 l 833 417 l 833 347 m 486 660 q 456 586 486 617 q 382 556 425 556 q 308 586 339 556 q 278 660 278 617 q 308 733 278 703 q 382 764 339 764 q 456 733 425 764 q 486 660 486 703 m 833 660 q 803 586 833 617 q 729 556 772 556 q 656 586 686 556 q 625 660 625 617 q 656 733 625 703 q 729 764 686 764 q 803 733 772 764 q 833 660 833 703 m 1042 556 q 1003 744 1042 656 q 898 898 964 832 q 744 1003 832 964 q 556 1042 656 1042 q 369 1003 457 1042 q 214 899 281 965 q 108 745 147 833 q 69 556 69 657 q 108 367 69 456 q 212 212 146 278 q 367 108 278 146 q 556 69 456 69 q 745 108 657 69 q 899 214 833 147 q 1003 369 965 281 q 1042 556 1042 457 m 1111 556 q 1067 340 1111 440 q 948 163 1024 239 q 771 44 872 88 q 556 0 669 0 q 340 44 440 0 q 163 163 239 88 q 44 340 88 239 q 0 556 0 440 q 44 771 0 669 q 163 948 88 872 q 340 1067 239 1024 q 556 1111 440 1111 q 771 1067 669 1111 q 948 948 872 1024 q 1067 771 1024 872 q 1111 556 1111 669 z "},"D":{"ha":1207,"x_min":0,"x_max":1111,"o":"m 286 440 q 324 356 297 394 q 386 290 350 318 q 466 247 422 263 q 556 232 510 232 q 645 247 601 232 q 725 290 689 263 q 788 356 761 318 q 825 440 814 394 l 286 440 m 903 510 q 875 376 903 439 q 800 265 847 313 q 690 190 753 218 q 556 163 626 163 q 420 190 483 163 q 310 264 357 217 q 235 374 263 311 q 208 510 208 438 l 903 510 m 486 683 q 456 610 486 640 q 382 579 425 579 q 308 610 339 579 q 278 683 278 640 q 308 756 278 725 q 382 788 339 788 q 456 756 425 788 q 486 683 486 725 m 833 683 q 803 610 833 640 q 729 579 772 579 q 656 610 686 579 q 625 683 625 640 q 656 756 625 725 q 729 788 686 788 q 803 756 772 788 q 833 683 833 725 m 1042 556 q 1003 744 1042 656 q 898 898 964 832 q 744 1003 832 964 q 556 1042 656 1042 q 369 1003 457 1042 q 214 899 281 965 q 108 745 147 833 q 69 556 69 657 q 108 367 69 456 q 212 212 146 278 q 367 108 278 146 q 556 69 456 69 q 745 108 657 69 q 899 214 833 147 q 1003 369 965 281 q 1042 556 1042 457 m 1111 556 q 1067 340 1111 440 q 948 163 1024 239 q 771 44 872 88 q 556 0 669 0 q 340 44 440 0 q 163 163 239 88 q 44 340 88 239 q 0 556 0 440 q 44 771 0 669 q 163 948 88 872 q 340 1067 239 1024 q 556 1111 440 1111 q 771 1067 669 1111 q 948 948 872 1024 q 1067 771 1024 872 q 1111 556 1111 669 z "},"E":{"ha":1207,"x_min":0,"x_max":1111,"o":"m 625 347 q 631 299 625 324 q 646 253 636 274 q 668 221 656 233 q 694 208 681 208 q 719 221 707 208 q 742 253 732 233 q 758 299 751 274 q 764 347 764 324 l 625 347 m 833 347 q 823 271 833 308 q 794 204 813 233 q 751 157 776 175 q 694 139 725 139 q 638 157 664 139 q 594 204 613 175 q 566 271 576 233 q 556 347 556 308 l 278 347 l 278 417 l 833 417 l 833 347 m 486 660 q 456 586 486 617 q 382 556 425 556 q 308 586 339 556 q 278 660 278 617 q 308 733 278 703 q 382 764 339 764 q 456 733 425 764 q 486 660 486 703 m 833 660 q 803 586 833 617 q 729 556 772 556 q 656 586 686 556 q 625 660 625 617 q 656 733 625 703 q 729 764 686 764 q 803 733 772 764 q 833 660 833 703 m 1042 556 q 1003 744 1042 656 q 898 898 964 832 q 744 1003 832 964 q 556 1042 656 1042 q 369 1003 457 1042 q 214 899 281 965 q 108 745 147 833 q 69 556 69 657 q 108 367 69 456 q 212 212 146 278 q 367 108 278 146 q 556 69 456 69 q 745 108 657 69 q 899 214 833 147 q 1003 369 965 281 q 1042 556 1042 457 m 1111 556 q 1067 340 1111 440 q 948 163 1024 239 q 771 44 872 88 q 556 0 669 0 q 340 44 440 0 q 163 163 239 88 q 44 340 88 239 q 0 556 0 440 q 44 771 0 669 q 163 948 88 872 q 340 1067 239 1024 q 556 1111 440 1111 q 771 1067 669 1111 q 948 948 872 1024 q 1067 771 1024 872 q 1111 556 1111 669 z "},"F":{"ha":1207,"x_min":0,"x_max":1111,"o":"m 486 347 q 492 299 486 324 q 507 253 497 274 q 529 221 517 233 q 556 208 542 208 q 581 221 568 208 q 603 253 593 233 q 619 299 613 274 q 625 347 625 324 l 486 347 m 764 347 l 694 347 q 684 271 694 308 q 656 204 674 233 q 612 157 638 175 q 556 139 586 139 q 499 157 525 139 q 456 204 474 175 q 427 271 438 233 q 417 347 417 308 l 347 347 l 347 417 l 764 417 l 764 347 m 486 660 q 456 586 486 617 q 382 556 425 556 q 308 586 339 556 q 278 660 278 617 q 308 733 278 703 q 382 764 339 764 q 456 733 425 764 q 486 660 486 703 m 833 660 q 803 586 833 617 q 729 556 772 556 q 656 586 686 556 q 625 660 625 617 q 656 733 625 703 q 729 764 686 764 q 803 733 772 764 q 833 660 833 703 m 1042 556 q 1003 744 1042 656 q 898 898 964 832 q 744 1003 832 964 q 556 1042 656 1042 q 369 1003 457 1042 q 214 899 281 965 q 108 745 147 833 q 69 556 69 657 q 108 367 69 456 q 212 212 146 278 q 367 108 278 146 q 556 69 456 69 q 745 108 657 69 q 899 214 833 147 q 1003 369 965 281 q 1042 556 1042 457 m 1111 556 q 1067 340 1111 440 q 948 163 1024 239 q 771 44 872 88 q 556 0 669 0 q 340 44 440 0 q 163 163 239 88 q 44 340 88 239 q 0 556 0 440 q 44 771 0 669 q 163 948 88 872 q 340 1067 239 1024 q 556 1111 440 1111 q 771 1067 669 1111 q 948 948 872 1024 q 1067 771 1024 872 q 1111 556 1111 669 z "},"G":{"ha":1206,"x_min":0,"x_max":1111,"o":"m 833 417 l 353 139 l 318 199 l 799 476 l 833 417 m 486 660 q 456 586 486 617 q 382 556 425 556 q 308 586 339 556 q 278 660 278 617 q 308 733 278 703 q 382 764 339 764 q 456 733 425 764 q 486 660 486 703 m 833 660 q 803 586 833 617 q 729 556 772 556 q 656 586 686 556 q 625 660 625 617 q 656 733 625 703 q 729 764 686 764 q 803 733 772 764 q 833 660 833 703 m 1042 556 q 1003 744 1042 656 q 898 898 964 832 q 744 1003 832 964 q 556 1042 656 1042 q 369 1003 457 1042 q 214 899 281 965 q 108 745 147 833 q 69 556 69 657 q 108 367 69 456 q 212 212 146 278 q 367 108 278 146 q 556 69 456 69 q 745 108 657 69 q 899 214 833 147 q 1003 369 965 281 q 1042 556 1042 457 m 1111 556 q 1067 340 1111 440 q 948 163 1024 239 q 771 44 872 88 q 556 0 669 0 q 340 44 440 0 q 163 163 239 88 q 44 340 88 239 q 0 556 0 440 q 44 771 0 669 q 163 948 88 872 q 340 1067 239 1024 q 556 1111 440 1111 q 771 1067 669 1111 q 948 948 872 1024 q 1067 771 1024 872 q 1111 556 1111 669 z "},"H":{"ha":1207,"x_min":0,"x_max":1111,"o":"m 903 556 q 875 422 903 485 q 800 311 847 358 q 690 236 753 264 q 556 208 626 208 q 420 235 483 208 q 310 310 357 263 q 235 420 263 357 q 208 556 208 483 l 278 556 q 299 447 278 497 q 358 358 321 396 q 447 299 396 321 q 556 278 497 278 q 663 300 613 278 q 751 360 714 322 q 811 448 789 397 q 833 556 833 499 l 903 556 m 486 625 l 278 625 l 278 694 l 486 694 l 486 625 m 833 660 q 803 586 833 617 q 729 556 772 556 q 656 586 686 556 q 625 660 625 617 q 656 733 625 703 q 729 764 686 764 q 803 733 772 764 q 833 660 833 703 m 1042 556 q 1003 744 1042 656 q 898 898 964 832 q 744 1003 832 964 q 556 1042 656 1042 q 369 1003 457 1042 q 214 899 281 965 q 108 745 147 833 q 69 556 69 657 q 108 367 69 456 q 212 212 146 278 q 367 108 278 146 q 556 69 456 69 q 745 108 657 69 q 899 214 833 147 q 1003 369 965 281 q 1042 556 1042 457 m 1111 556 q 1067 340 1111 440 q 948 163 1024 239 q 771 44 872 88 q 556 0 669 0 q 340 44 440 0 q 163 163 239 88 q 44 340 88 239 q 0 556 0 440 q 44 771 0 669 q 163 948 88 872 q 340 1067 239 1024 q 556 1111 440 1111 q 771 1067 669 1111 q 948 948 872 1024 q 1067 771 1024 872 q 1111 556 1111 669 z "},"I":{"ha":1207,"x_min":0,"x_max":1111,"o":"m 486 625 l 278 625 l 278 694 l 486 694 l 486 625 m 833 660 q 803 586 833 617 q 729 556 772 556 q 656 586 686 556 q 625 660 625 617 q 656 733 625 703 q 729 764 686 764 q 803 733 772 764 q 833 660 833 703 m 833 208 q 811 316 833 265 q 751 404 789 367 q 663 464 714 442 q 556 486 613 486 q 448 464 499 486 q 360 404 397 442 q 300 316 322 367 q 278 208 278 265 l 215 208 q 556 69 354 69 q 896 208 757 69 l 833 208 m 1042 556 q 1003 744 1042 656 q 898 898 964 832 q 744 1003 832 964 q 556 1042 656 1042 q 369 1003 457 1042 q 214 899 281 965 q 108 745 147 833 q 69 556 69 657 q 208 215 69 354 q 238 348 210 286 q 314 456 267 410 q 424 528 361 501 q 556 556 486 556 q 688 528 625 556 q 797 456 750 501 q 873 348 844 410 q 903 215 901 286 q 1042 556 1042 354 m 1111 556 q 1067 340 1111 440 q 948 163 1024 239 q 771 44 872 88 q 556 0 669 0 q 340 44 440 0 q 163 163 239 88 q 44 340 88 239 q 0 556 0 440 q 44 771 0 669 q 163 948 88 872 q 340 1067 239 1024 q 556 1111 440 1111 q 771 1067 669 1111 q 948 948 872 1024 q 1067 771 1024 872 q 1111 556 1111 669 z "},"J":{"ha":1207,"x_min":0,"x_max":1111,"o":"m 833 347 l 278 347 l 278 417 l 833 417 l 833 347 m 486 625 l 278 625 l 278 694 l 486 694 l 486 625 m 833 660 q 803 586 833 617 q 729 556 772 556 q 656 586 686 556 q 625 660 625 617 q 656 733 625 703 q 729 764 686 764 q 803 733 772 764 q 833 660 833 703 m 1042 556 q 1003 744 1042 656 q 898 898 964 832 q 744 1003 832 964 q 556 1042 656 1042 q 369 1003 457 1042 q 214 899 281 965 q 108 745 147 833 q 69 556 69 657 q 108 367 69 456 q 212 212 146 278 q 367 108 278 146 q 556 69 456 69 q 745 108 657 69 q 899 214 833 147 q 1003 369 965 281 q 1042 556 1042 457 m 1111 556 q 1067 340 1111 440 q 948 163 1024 239 q 771 44 872 88 q 556 0 669 0 q 340 44 440 0 q 163 163 239 88 q 44 340 88 239 q 0 556 0 440 q 44 771 0 669 q 163 948 88 872 q 340 1067 239 1024 q 556 1111 440 1111 q 771 1067 669 1111 q 948 948 872 1024 q 1067 771 1024 872 q 1111 556 1111 669 z "},"K":{"ha":1207,"x_min":0,"x_max":1111,"o":"m 286 417 q 324 333 297 371 q 386 267 350 294 q 466 224 422 239 q 556 208 510 208 q 645 224 601 208 q 725 267 689 239 q 788 333 761 294 q 825 417 814 371 l 286 417 m 903 486 q 875 352 903 415 q 800 242 847 289 q 690 167 753 194 q 556 139 626 139 q 420 166 483 139 q 310 240 357 193 q 235 351 263 288 q 208 486 208 414 l 903 486 m 486 649 l 278 649 l 278 718 l 486 718 l 486 649 m 833 683 q 803 610 833 640 q 729 579 772 579 q 656 610 686 579 q 625 683 625 640 q 656 756 625 725 q 729 788 686 788 q 803 756 772 788 q 833 683 833 725 m 1042 556 q 1003 744 1042 656 q 898 898 964 832 q 744 1003 832 964 q 556 1042 656 1042 q 369 1003 457 1042 q 214 899 281 965 q 108 745 147 833 q 69 556 69 657 q 108 367 69 456 q 212 212 146 278 q 367 108 278 146 q 556 69 456 69 q 745 108 657 69 q 899 214 833 147 q 1003 369 965 281 q 1042 556 1042 457 m 1111 556 q 1067 340 1111 440 q 948 163 1024 239 q 771 44 872 88 q 556 0 669 0 q 340 44 440 0 q 163 163 239 88 q 44 340 88 239 q 0 556 0 440 q 44 771 0 669 q 163 948 88 872 q 340 1067 239 1024 q 556 1111 440 1111 q 771 1067 669 1111 q 948 948 872 1024 q 1067 771 1024 872 q 1111 556 1111 669 z "},"L":{"ha":1207,"x_min":0,"x_max":1111,"o":"m 625 347 q 631 299 625 324 q 646 253 636 274 q 668 221 656 233 q 694 208 681 208 q 719 221 707 208 q 742 253 732 233 q 758 299 751 274 q 764 347 764 324 l 625 347 m 833 347 q 823 271 833 308 q 794 204 813 233 q 751 157 776 175 q 694 139 725 139 q 638 157 664 139 q 594 204 613 175 q 566 271 576 233 q 556 347 556 308 l 278 347 l 278 417 l 833 417 l 833 347 m 486 625 l 278 625 l 278 694 l 486 694 l 486 625 m 833 660 q 803 586 833 617 q 729 556 772 556 q 656 586 686 556 q 625 660 625 617 q 656 733 625 703 q 729 764 686 764 q 803 733 772 764 q 833 660 833 703 m 1042 556 q 1003 744 1042 656 q 898 898 964 832 q 744 1003 832 964 q 556 1042 656 1042 q 369 1003 457 1042 q 214 899 281 965 q 108 745 147 833 q 69 556 69 657 q 108 367 69 456 q 212 212 146 278 q 367 108 278 146 q 556 69 456 69 q 745 108 657 69 q 899 214 833 147 q 1003 369 965 281 q 1042 556 1042 457 m 1111 556 q 1067 340 1111 440 q 948 163 1024 239 q 771 44 872 88 q 556 0 669 0 q 340 44 440 0 q 163 163 239 88 q 44 340 88 239 q 0 556 0 440 q 44 771 0 669 q 163 948 88 872 q 340 1067 239 1024 q 556 1111 440 1111 q 771 1067 669 1111 q 948 948 872 1024 q 1067 771 1024 872 q 1111 556 1111 669 z "},"M":{"ha":1207,"x_min":0,"x_max":1111,"o":"m 486 347 q 492 299 486 324 q 507 253 497 274 q 529 221 517 233 q 556 208 542 208 q 581 221 568 208 q 603 253 593 233 q 619 299 613 274 q 625 347 625 324 l 486 347 m 764 347 l 694 347 q 684 271 694 308 q 656 204 674 233 q 612 157 638 175 q 556 139 586 139 q 499 157 525 139 q 456 204 474 175 q 427 271 438 233 q 417 347 417 308 l 347 347 l 347 417 l 764 417 l 764 347 m 486 625 l 278 625 l 278 694 l 486 694 l 486 625 m 833 660 q 803 586 833 617 q 729 556 772 556 q 656 586 686 556 q 625 660 625 617 q 656 733 625 703 q 729 764 686 764 q 803 733 772 764 q 833 660 833 703 m 1042 556 q 1003 744 1042 656 q 898 898 964 832 q 744 1003 832 964 q 556 1042 656 1042 q 369 1003 457 1042 q 214 899 281 965 q 108 745 147 833 q 69 556 69 657 q 108 367 69 456 q 212 212 146 278 q 367 108 278 146 q 556 69 456 69 q 745 108 657 69 q 899 214 833 147 q 1003 369 965 281 q 1042 556 1042 457 m 1111 556 q 1067 340 1111 440 q 948 163 1024 239 q 771 44 872 88 q 556 0 669 0 q 340 44 440 0 q 163 163 239 88 q 44 340 88 239 q 0 556 0 440 q 44 771 0 669 q 163 948 88 872 q 340 1067 239 1024 q 556 1111 440 1111 q 771 1067 669 1111 q 948 948 872 1024 q 1067 771 1024 872 q 1111 556 1111 669 z "},"N":{"ha":1207,"x_min":0,"x_max":1111,"o":"m 793 208 l 758 149 l 278 426 l 313 486 l 793 208 m 486 660 q 456 586 486 617 q 382 556 425 556 q 308 586 339 556 q 278 660 278 617 q 308 733 278 703 q 382 764 339 764 q 456 733 425 764 q 486 660 486 703 m 833 660 q 803 586 833 617 q 729 556 772 556 q 656 586 686 556 q 625 660 625 617 q 656 733 625 703 q 729 764 686 764 q 803 733 772 764 q 833 660 833 703 m 1042 556 q 1003 744 1042 656 q 898 898 964 832 q 744 1003 832 964 q 556 1042 656 1042 q 369 1003 457 1042 q 214 899 281 965 q 108 745 147 833 q 69 556 69 657 q 108 367 69 456 q 212 212 146 278 q 367 108 278 146 q 556 69 456 69 q 745 108 657 69 q 899 214 833 147 q 1003 369 965 281 q 1042 556 1042 457 m 1111 556 q 1067 340 1111 440 q 948 163 1024 239 q 771 44 872 88 q 556 0 669 0 q 340 44 440 0 q 163 163 239 88 q 44 340 88 239 q 0 556 0 440 q 44 771 0 669 q 163 948 88 872 q 340 1067 239 1024 q 556 1111 440 1111 q 771 1067 669 1111 q 948 948 872 1024 q 1067 771 1024 872 q 1111 556 1111 669 z "},"O":{"ha":1207,"x_min":0,"x_max":1111,"o":"m 903 556 q 875 422 903 485 q 800 311 847 358 q 690 236 753 264 q 556 208 626 208 q 420 235 483 208 q 310 310 357 263 q 235 420 263 357 q 208 556 208 483 l 278 556 q 299 447 278 497 q 358 358 321 396 q 447 299 396 321 q 556 278 497 278 q 663 300 613 278 q 751 360 714 322 q 811 448 789 397 q 833 556 833 499 l 903 556 m 486 625 l 278 625 l 278 694 l 486 694 l 486 625 m 474 756 l 425 707 l 278 854 l 326 903 l 474 756 m 833 660 q 803 586 833 617 q 729 556 772 556 q 656 586 686 556 q 625 660 625 617 q 651 729 625 699 l 625 756 l 772 903 l 821 854 l 732 764 q 803 732 774 763 q 833 660 833 701 m 1042 556 q 1003 744 1042 656 q 898 898 964 832 q 744 1003 832 964 q 556 1042 656 1042 q 369 1003 457 1042 q 214 899 281 965 q 108 745 147 833 q 69 556 69 657 q 108 367 69 456 q 212 212 146 278 q 367 108 278 146 q 556 69 456 69 q 745 108 657 69 q 899 214 833 147 q 1003 369 965 281 q 1042 556 1042 457 m 1111 556 q 1067 340 1111 440 q 948 163 1024 239 q 771 44 872 88 q 556 0 669 0 q 340 44 440 0 q 163 163 239 88 q 44 340 88 239 q 0 556 0 440 q 44 771 0 669 q 163 948 88 872 q 340 1067 239 1024 q 556 1111 440 1111 q 771 1067 669 1111 q 948 948 872 1024 q 1067 771 1024 872 q 1111 556 1111 669 z "},"P":{"ha":1207,"x_min":0,"x_max":1111,"o":"m 486 625 l 278 625 l 278 694 l 486 694 l 486 625 m 474 756 l 425 707 l 278 854 l 326 903 l 474 756 m 833 660 q 803 586 833 617 q 729 556 772 556 q 656 586 686 556 q 625 660 625 617 q 651 729 625 699 l 625 756 l 772 903 l 821 854 l 732 764 q 803 732 774 763 q 833 660 833 701 m 833 208 q 811 316 833 265 q 751 404 789 367 q 663 464 714 442 q 556 486 613 486 q 448 464 499 486 q 360 404 397 442 q 300 316 322 367 q 278 208 278 265 l 215 208 q 556 69 354 69 q 896 208 757 69 l 833 208 m 1042 556 q 1003 744 1042 656 q 898 898 964 832 q 744 1003 832 964 q 556 1042 656 1042 q 369 1003 457 1042 q 214 899 281 965 q 108 745 147 833 q 69 556 69 657 q 208 215 69 354 q 238 348 210 286 q 314 456 267 410 q 424 528 361 501 q 556 556 486 556 q 688 528 625 556 q 797 456 750 501 q 873 348 844 410 q 903 215 901 286 q 1042 556 1042 354 m 1111 556 q 1067 340 1111 440 q 948 163 1024 239 q 771 44 872 88 q 556 0 669 0 q 340 44 440 0 q 163 163 239 88 q 44 340 88 239 q 0 556 0 440 q 44 771 0 669 q 163 948 88 872 q 340 1067 239 1024 q 556 1111 440 1111 q 771 1067 669 1111 q 948 948 872 1024 q 1067 771 1024 872 q 1111 556 1111 669 z "},"Q":{"ha":1207,"x_min":0,"x_max":1111,"o":"m 833 347 l 278 347 l 278 417 l 833 417 l 833 347 m 486 625 l 278 625 l 278 694 l 486 694 l 486 625 m 474 756 l 425 707 l 278 854 l 326 903 l 474 756 m 833 660 q 803 586 833 617 q 729 556 772 556 q 656 586 686 556 q 625 660 625 617 q 651 729 625 699 l 625 756 l 772 903 l 821 854 l 732 764 q 803 732 774 763 q 833 660 833 701 m 1042 556 q 1003 744 1042 656 q 898 898 964 832 q 744 1003 832 964 q 556 1042 656 1042 q 369 1003 457 1042 q 214 899 281 965 q 108 745 147 833 q 69 556 69 657 q 108 367 69 456 q 212 212 146 278 q 367 108 278 146 q 556 69 456 69 q 745 108 657 69 q 899 214 833 147 q 1003 369 965 281 q 1042 556 1042 457 m 1111 556 q 1067 340 1111 440 q 948 163 1024 239 q 771 44 872 88 q 556 0 669 0 q 340 44 440 0 q 163 163 239 88 q 44 340 88 239 q 0 556 0 440 q 44 771 0 669 q 163 948 88 872 q 340 1067 239 1024 q 556 1111 440 1111 q 771 1067 669 1111 q 948 948 872 1024 q 1067 771 1024 872 q 1111 556 1111 669 z "},"R":{"ha":1207,"x_min":0,"x_max":1111,"o":"m 286 417 q 324 333 297 371 q 386 267 350 294 q 466 224 422 239 q 556 208 510 208 q 645 224 601 208 q 725 267 689 239 q 788 333 761 294 q 825 417 814 371 l 286 417 m 903 486 q 875 352 903 415 q 800 242 847 289 q 690 167 753 194 q 556 139 626 139 q 420 166 483 139 q 310 240 357 193 q 235 351 263 288 q 208 486 208 414 l 903 486 m 486 625 l 278 625 l 278 694 l 486 694 l 486 625 m 486 756 l 438 707 l 290 854 l 339 903 l 486 756 m 833 660 q 803 586 833 617 q 729 556 772 556 q 656 586 686 556 q 625 660 625 617 q 657 735 625 703 l 638 756 l 785 903 l 833 854 l 743 763 q 807 728 781 758 q 833 660 833 699 m 1042 556 q 1003 744 1042 656 q 898 898 964 832 q 744 1003 832 964 q 556 1042 656 1042 q 369 1003 457 1042 q 214 899 281 965 q 108 745 147 833 q 69 556 69 657 q 108 367 69 456 q 212 212 146 278 q 367 108 278 146 q 556 69 456 69 q 745 108 657 69 q 899 214 833 147 q 1003 369 965 281 q 1042 556 1042 457 m 1111 556 q 1067 340 1111 440 q 948 163 1024 239 q 771 44 872 88 q 556 0 669 0 q 340 44 440 0 q 163 163 239 88 q 44 340 88 239 q 0 556 0 440 q 44 771 0 669 q 163 948 88 872 q 340 1067 239 1024 q 556 1111 440 1111 q 771 1067 669 1111 q 948 948 872 1024 q 1067 771 1024 872 q 1111 556 1111 669 z "},"S":{"ha":1207,"x_min":0,"x_max":1111,"o":"m 625 347 q 631 299 625 324 q 646 253 636 274 q 668 221 656 233 q 694 208 681 208 q 719 221 707 208 q 742 253 732 233 q 758 299 751 274 q 764 347 764 324 l 625 347 m 833 347 q 823 271 833 308 q 794 204 813 233 q 751 157 776 175 q 694 139 725 139 q 638 157 664 139 q 594 204 613 175 q 566 271 576 233 q 556 347 556 308 l 278 347 l 278 417 l 833 417 l 833 347 m 474 617 l 425 568 l 376 617 l 326 568 l 278 617 l 326 665 l 278 715 l 326 764 l 376 715 l 425 764 l 474 715 l 425 665 l 474 617 m 821 613 l 772 564 l 724 613 l 674 564 l 625 613 l 674 663 l 625 711 l 674 760 l 724 711 l 772 760 l 821 711 l 772 663 l 821 613 m 1042 556 q 1003 744 1042 656 q 898 898 964 832 q 744 1003 832 964 q 556 1042 656 1042 q 369 1003 457 1042 q 214 899 281 965 q 108 745 147 833 q 69 556 69 657 q 108 367 69 456 q 212 212 146 278 q 367 108 278 146 q 556 69 456 69 q 745 108 657 69 q 899 214 833 147 q 1003 369 965 281 q 1042 556 1042 457 m 1111 556 q 1067 340 1111 440 q 948 163 1024 239 q 771 44 872 88 q 556 0 669 0 q 340 44 440 0 q 163 163 239 88 q 44 340 88 239 q 0 556 0 440 q 44 771 0 669 q 163 948 88 872 q 340 1067 239 1024 q 556 1111 440 1111 q 771 1067 669 1111 q 948 948 872 1024 q 1067 771 1024 872 q 1111 556 1111 669 z "},"T":{"ha":1207,"x_min":0,"x_max":1111,"o":"m 486 347 q 492 299 486 324 q 507 253 497 274 q 529 221 517 233 q 556 208 542 208 q 581 221 568 208 q 603 253 593 233 q 619 299 613 274 q 625 347 625 324 l 486 347 m 764 347 l 694 347 q 684 271 694 308 q 656 204 674 233 q 612 157 638 175 q 556 139 586 139 q 499 157 525 139 q 456 204 474 175 q 427 271 438 233 q 417 347 417 308 l 347 347 l 347 417 l 764 417 l 764 347 m 486 660 q 456 586 486 617 q 382 556 425 556 q 308 586 339 556 q 278 660 278 617 q 304 728 278 699 q 369 763 331 758 l 290 843 l 339 892 l 486 744 l 465 722 q 486 660 486 694 m 833 660 q 803 586 833 617 q 729 556 772 556 q 656 586 686 556 q 625 660 625 617 q 657 735 625 703 l 638 756 l 785 903 l 833 854 l 743 763 q 807 728 781 758 q 833 660 833 699 m 1042 556 q 1003 744 1042 656 q 898 898 964 832 q 744 1003 832 964 q 556 1042 656 1042 q 369 1003 457 1042 q 214 899 281 965 q 108 745 147 833 q 69 556 69 657 q 108 367 69 456 q 212 212 146 278 q 367 108 278 146 q 556 69 456 69 q 745 108 657 69 q 899 214 833 147 q 1003 369 965 281 q 1042 556 1042 457 m 1111 556 q 1067 340 1111 440 q 948 163 1024 239 q 771 44 872 88 q 556 0 669 0 q 340 44 440 0 q 163 163 239 88 q 44 340 88 239 q 0 556 0 440 q 44 771 0 669 q 163 948 88 872 q 340 1067 239 1024 q 556 1111 440 1111 q 771 1067 669 1111 q 948 948 872 1024 q 1067 771 1024 872 q 1111 556 1111 669 z "},"U":{"ha":1207,"x_min":0,"x_max":1111,"o":"m 364 590 q 349 626 364 611 q 313 642 333 642 q 276 626 292 642 q 260 590 260 611 q 276 553 260 569 q 313 538 292 538 q 349 553 333 538 q 364 590 364 569 m 885 656 q 859 716 885 692 q 799 740 833 740 q 738 716 764 740 q 711 656 711 692 q 738 596 711 621 q 799 571 764 571 q 859 596 833 571 q 885 656 885 621 m 417 590 q 386 517 417 547 q 313 486 356 486 q 239 517 269 486 q 208 590 208 547 q 239 664 208 633 q 313 694 269 694 q 386 664 356 694 q 417 590 417 633 m 686 417 l 425 417 l 425 486 l 686 486 l 686 417 m 972 656 q 958 589 972 619 q 921 535 944 558 q 865 499 897 513 q 799 486 833 486 q 731 499 763 486 q 676 535 700 513 q 639 589 653 558 q 625 656 625 619 q 639 722 625 690 q 677 776 653 753 q 733 812 701 799 q 799 825 764 825 q 865 812 833 825 q 919 776 896 799 q 958 722 943 753 q 972 656 972 690 m 1042 556 q 1003 744 1042 656 q 898 898 964 832 q 744 1003 832 964 q 556 1042 656 1042 q 369 1003 457 1042 q 214 899 281 965 q 108 745 147 833 q 69 556 69 657 q 108 367 69 456 q 212 212 146 278 q 367 108 278 146 q 556 69 456 69 q 745 108 657 69 q 899 214 833 147 q 1003 369 965 281 q 1042 556 1042 457 m 1111 556 q 1067 340 1111 440 q 948 163 1024 239 q 771 44 872 88 q 556 0 669 0 q 340 44 440 0 q 163 163 239 88 q 44 340 88 239 q 0 556 0 440 q 44 771 0 669 q 163 948 88 872 q 340 1067 239 1024 q 556 1111 440 1111 q 771 1067 669 1111 q 948 948 872 1024 q 1067 771 1024 872 q 1111 556 1111 669 z "},"V":{"ha":1206,"x_min":0,"x_max":1111,"o":"m 903 556 q 875 422 903 485 q 800 311 847 358 q 690 236 753 264 q 556 208 626 208 q 420 235 483 208 q 310 310 357 263 q 235 420 263 357 q 208 556 208 483 l 278 556 q 299 447 278 497 q 358 358 321 396 q 447 299 396 321 q 556 278 497 278 q 663 300 613 278 q 751 360 714 322 q 811 448 789 397 q 833 556 833 499 l 903 556 m 486 660 q 456 586 486 617 q 382 556 425 556 q 308 586 339 556 q 278 660 278 617 q 308 732 278 701 q 379 764 338 763 l 290 854 l 339 903 l 486 756 l 460 729 q 486 660 486 699 m 833 660 q 803 586 833 617 q 729 556 772 556 q 656 586 686 556 q 625 660 625 617 q 657 735 625 703 l 638 756 l 785 903 l 833 854 l 743 763 q 807 728 781 758 q 833 660 833 699 m 1042 556 q 1003 744 1042 656 q 898 898 964 832 q 744 1003 832 964 q 556 1042 656 1042 q 369 1003 457 1042 q 214 899 281 965 q 108 745 147 833 q 69 556 69 657 q 108 367 69 456 q 212 212 146 278 q 367 108 278 146 q 556 69 456 69 q 745 108 657 69 q 899 214 833 147 q 1003 369 965 281 q 1042 556 1042 457 m 1111 556 q 1067 340 1111 440 q 948 163 1024 239 q 771 44 872 88 q 556 0 669 0 q 340 44 440 0 q 163 163 239 88 q 44 340 88 239 q 0 556 0 440 q 44 771 0 669 q 163 948 88 872 q 340 1067 239 1024 q 556 1111 440 1111 q 771 1067 669 1111 q 948 948 872 1024 q 1067 771 1024 872 q 1111 556 1111 669 z "},"W":{"ha":1206,"x_min":0,"x_max":1111,"o":"m 486 660 q 456 586 486 617 q 382 556 425 556 q 308 586 339 556 q 278 660 278 617 q 308 732 278 701 q 379 764 338 763 l 290 854 l 339 903 l 486 756 l 460 729 q 486 660 486 699 m 833 660 q 803 586 833 617 q 729 556 772 556 q 656 586 686 556 q 625 660 625 617 q 657 735 625 703 l 638 756 l 785 903 l 833 854 l 743 763 q 807 728 781 758 q 833 660 833 699 m 833 208 q 811 316 833 265 q 751 404 789 367 q 663 464 714 442 q 556 486 613 486 q 448 464 499 486 q 360 404 397 442 q 300 316 322 367 q 278 208 278 265 l 215 208 q 556 69 354 69 q 896 208 757 69 l 833 208 m 1042 556 q 1003 744 1042 656 q 898 898 964 832 q 744 1003 832 964 q 556 1042 656 1042 q 369 1003 457 1042 q 214 899 281 965 q 108 745 147 833 q 69 556 69 657 q 208 215 69 354 q 238 348 210 286 q 314 456 267 410 q 424 528 361 501 q 556 556 486 556 q 688 528 625 556 q 797 456 750 501 q 873 348 844 410 q 903 215 901 286 q 1042 556 1042 354 m 1111 556 q 1067 340 1111 440 q 948 163 1024 239 q 771 44 872 88 q 556 0 669 0 q 340 44 440 0 q 163 163 239 88 q 44 340 88 239 q 0 556 0 440 q 44 771 0 669 q 163 948 88 872 q 340 1067 239 1024 q 556 1111 440 1111 q 771 1067 669 1111 q 948 948 872 1024 q 1067 771 1024 872 q 1111 556 1111 669 z "},"X":{"ha":1206,"x_min":0,"x_max":1111,"o":"m 903 347 l 208 347 l 208 417 l 903 417 l 903 347 m 486 660 q 456 586 486 617 q 382 556 425 556 q 308 586 339 556 q 278 660 278 617 q 308 732 278 701 q 379 764 338 763 l 290 854 l 339 903 l 486 756 l 460 729 q 486 660 486 699 m 833 660 q 803 586 833 617 q 729 556 772 556 q 656 586 686 556 q 625 660 625 617 q 657 735 625 703 l 638 756 l 785 903 l 833 854 l 743 763 q 807 728 781 758 q 833 660 833 699 m 1042 556 q 1003 744 1042 656 q 898 898 964 832 q 744 1003 832 964 q 556 1042 656 1042 q 369 1003 457 1042 q 214 899 281 965 q 108 745 147 833 q 69 556 69 657 q 108 367 69 456 q 212 212 146 278 q 367 108 278 146 q 556 69 456 69 q 745 108 657 69 q 899 214 833 147 q 1003 369 965 281 q 1042 556 1042 457 m 1111 556 q 1067 340 1111 440 q 948 163 1024 239 q 771 44 872 88 q 556 0 669 0 q 340 44 440 0 q 163 163 239 88 q 44 340 88 239 q 0 556 0 440 q 44 771 0 669 q 163 948 88 872 q 340 1067 239 1024 q 556 1111 440 1111 q 771 1067 669 1111 q 948 948 872 1024 q 1067 771 1024 872 q 1111 556 1111 669 z "},"Y":{"ha":1206,"x_min":0,"x_max":1111,"o":"m 286 417 q 324 333 297 371 q 386 267 350 294 q 466 224 422 239 q 556 208 510 208 q 645 224 601 208 q 725 267 689 239 q 788 333 761 294 q 825 417 814 371 l 286 417 m 903 486 q 875 352 903 415 q 800 242 847 289 q 690 167 753 194 q 556 139 626 139 q 420 166 483 139 q 310 240 357 193 q 235 351 263 288 q 208 486 208 414 l 903 486 m 486 683 q 456 610 486 640 q 382 579 425 579 q 308 610 339 579 q 278 683 278 640 q 301 748 278 719 q 358 785 324 776 l 290 854 l 339 903 l 486 756 l 469 739 q 486 683 486 714 m 833 683 q 803 610 833 640 q 729 579 772 579 q 656 610 686 579 q 625 683 625 640 q 651 753 625 722 l 638 767 l 785 914 l 833 865 l 753 785 q 810 748 788 776 q 833 683 833 719 m 1042 556 q 1003 744 1042 656 q 898 898 964 832 q 744 1003 832 964 q 556 1042 656 1042 q 369 1003 457 1042 q 214 899 281 965 q 108 745 147 833 q 69 556 69 657 q 108 367 69 456 q 212 212 146 278 q 367 108 278 146 q 556 69 456 69 q 745 108 657 69 q 899 214 833 147 q 1003 369 965 281 q 1042 556 1042 457 m 1111 556 q 1067 340 1111 440 q 948 163 1024 239 q 771 44 872 88 q 556 0 669 0 q 340 44 440 0 q 163 163 239 88 q 44 340 88 239 q 0 556 0 440 q 44 771 0 669 q 163 948 88 872 q 340 1067 239 1024 q 556 1111 440 1111 q 771 1067 669 1111 q 948 948 872 1024 q 1067 771 1024 872 q 1111 556 1111 669 z "},"Z":{"ha":1206,"x_min":0,"x_max":1111,"o":"m 625 347 q 631 299 625 324 q 646 253 636 274 q 668 221 656 233 q 694 208 681 208 q 719 221 707 208 q 742 253 732 233 q 758 299 751 274 q 764 347 764 324 l 625 347 m 833 347 q 823 271 833 308 q 794 204 813 233 q 751 157 776 175 q 694 139 725 139 q 638 157 664 139 q 594 204 613 175 q 566 271 576 233 q 556 347 556 308 l 278 347 l 278 417 l 833 417 l 833 347 m 486 625 l 278 625 l 278 694 l 486 694 l 486 625 m 833 625 l 625 625 l 625 694 l 833 694 l 833 625 m 1042 556 q 1003 744 1042 656 q 898 898 964 832 q 744 1003 832 964 q 556 1042 656 1042 q 369 1003 457 1042 q 214 899 281 965 q 108 745 147 833 q 69 556 69 657 q 108 367 69 456 q 212 212 146 278 q 367 108 278 146 q 556 69 456 69 q 745 108 657 69 q 899 214 833 147 q 1003 369 965 281 q 1042 556 1042 457 m 1111 556 q 1067 340 1111 440 q 948 163 1024 239 q 771 44 872 88 q 556 0 669 0 q 340 44 440 0 q 163 163 239 88 q 44 340 88 239 q 0 556 0 440 q 44 771 0 669 q 163 948 88 872 q 340 1067 239 1024 q 556 1111 440 1111 q 771 1067 669 1111 q 948 948 872 1024 q 1067 771 1024 872 q 1111 556 1111 669 z "},"[":{"ha":1206,"x_min":0,"x_max":1111,"o":"m 903 417 l 833 417 l 764 278 l 694 417 l 417 417 l 347 278 l 278 417 l 208 417 l 208 486 l 903 486 l 903 417 m 486 660 q 456 586 486 617 q 382 556 425 556 q 308 586 339 556 q 278 660 278 617 q 308 732 278 701 q 379 764 338 763 l 290 854 l 339 903 l 486 756 l 460 729 q 486 660 486 699 m 833 660 q 803 586 833 617 q 729 556 772 556 q 656 586 686 556 q 625 660 625 617 q 657 735 625 703 l 638 756 l 785 903 l 833 854 l 743 763 q 807 728 781 758 q 833 660 833 699 m 1042 556 q 1003 744 1042 656 q 898 898 964 832 q 744 1003 832 964 q 556 1042 656 1042 q 369 1003 457 1042 q 214 899 281 965 q 108 745 147 833 q 69 556 69 657 q 108 367 69 456 q 212 212 146 278 q 367 108 278 146 q 556 69 456 69 q 745 108 657 69 q 899 214 833 147 q 1003 369 965 281 q 1042 556 1042 457 m 1111 556 q 1067 340 1111 440 q 948 163 1024 239 q 771 44 872 88 q 556 0 669 0 q 340 44 440 0 q 163 163 239 88 q 44 340 88 239 q 0 556 0 440 q 44 771 0 669 q 163 948 88 872 q 340 1067 239 1024 q 556 1111 440 1111 q 771 1067 669 1111 q 948 948 872 1024 q 1067 771 1024 872 q 1111 556 1111 669 z "},"\\":{"ha":1206,"x_min":0,"x_max":1111,"o":"m 833 417 l 353 139 l 318 199 l 799 476 l 833 417 m 486 660 q 456 586 486 617 q 382 556 425 556 q 308 586 339 556 q 278 660 278 617 q 308 733 278 703 q 382 764 339 764 q 456 733 425 764 q 486 660 486 703 m 833 660 q 803 586 833 617 q 729 556 772 556 q 656 586 686 556 q 625 660 625 617 q 656 733 625 703 q 729 764 686 764 q 803 733 772 764 q 833 660 833 703 m 1042 556 q 1003 744 1042 656 q 898 898 964 832 q 744 1003 832 964 q 556 1042 656 1042 q 369 1003 457 1042 q 214 899 281 965 q 108 745 147 833 q 69 556 69 657 q 108 367 69 456 q 212 212 146 278 q 367 108 278 146 q 556 69 456 69 q 745 108 657 69 q 899 214 833 147 q 1003 369 965 281 q 1042 556 1042 457 m 1111 556 q 1067 340 1111 440 q 948 163 1024 239 q 771 44 872 88 q 556 0 669 0 q 340 44 440 0 q 163 163 239 88 q 44 340 88 239 q 0 556 0 440 q 44 771 0 669 q 163 948 88 872 q 340 1067 239 1024 q 556 1111 440 1111 q 771 1067 669 1111 q 948 948 872 1024 q 1067 771 1024 872 q 1111 556 1111 669 z "},"]":{"ha":1204,"x_min":0,"x_max":1106,"o":"m 761 404 l 692 265 l 622 404 l 483 404 l 415 265 l 346 404 l 285 404 q 322 320 296 358 q 383 254 347 282 q 462 211 418 226 q 553 196 506 196 q 642 211 599 196 q 722 254 686 226 q 784 320 758 282 q 821 404 810 358 l 761 404 m 899 472 q 871 339 899 401 q 797 230 843 276 q 687 156 750 183 q 553 128 624 128 q 419 156 482 128 q 309 230 356 183 q 235 339 263 276 q 207 472 207 401 l 899 472 m 483 668 q 453 596 483 626 q 381 565 422 565 q 307 596 338 565 q 276 668 276 626 q 299 733 276 704 q 357 769 322 761 l 289 839 l 338 888 l 483 740 l 468 725 q 483 668 483 697 m 829 668 q 799 596 829 626 q 726 565 768 565 q 653 596 683 565 q 622 668 622 626 q 649 738 622 711 l 635 753 l 781 899 l 829 850 l 750 769 q 807 733 785 761 q 829 668 829 704 m 1038 553 q 999 740 1038 651 q 894 894 960 828 q 740 999 828 960 q 553 1038 651 1038 q 366 999 454 1038 q 212 895 278 961 q 108 741 146 829 q 69 553 69 653 q 108 365 69 453 q 212 212 146 278 q 365 108 278 146 q 553 69 453 69 q 741 108 653 69 q 895 212 829 146 q 999 366 961 278 q 1038 553 1038 454 m 1106 553 q 1062 340 1106 440 q 943 163 1018 239 q 767 44 868 88 q 553 0 667 0 q 338 44 439 0 q 163 163 238 88 q 44 338 88 238 q 0 553 0 439 q 139 918 0 763 l 139 1244 l 367 1074 q 553 1106 463 1106 q 729 1078 638 1106 l 979 1244 l 961 926 q 1106 553 1106 765 z "},"^":{"ha":1206,"x_min":0,"x_max":1111,"o":"m 764 347 l 347 347 l 347 417 l 764 417 l 764 347 m 417 625 q 411 672 417 647 q 396 717 406 697 q 374 751 386 738 q 347 764 361 764 q 321 751 333 764 q 299 717 308 738 q 283 672 289 697 q 278 625 278 647 l 208 625 q 219 701 208 664 q 247 768 229 739 q 291 815 265 797 q 347 833 317 833 q 403 815 378 833 q 447 768 429 797 q 476 701 465 739 q 486 625 486 664 l 417 625 m 833 625 q 828 672 833 647 q 813 717 822 697 q 790 751 803 738 q 764 764 778 764 q 738 751 750 764 q 715 717 725 738 q 700 672 706 697 q 694 625 694 647 l 625 625 q 635 701 625 664 q 664 768 646 739 q 708 815 682 797 q 764 833 733 833 q 820 815 794 833 q 864 768 846 797 q 892 701 882 739 q 903 625 903 664 l 833 625 m 1042 556 q 1003 744 1042 656 q 898 898 964 832 q 744 1003 832 964 q 556 1042 656 1042 q 369 1003 457 1042 q 214 899 281 965 q 108 745 147 833 q 69 556 69 657 q 108 367 69 456 q 212 212 146 278 q 367 108 278 146 q 556 69 456 69 q 745 108 657 69 q 899 214 833 147 q 1003 369 965 281 q 1042 556 1042 457 m 1111 556 q 1067 340 1111 440 q 948 163 1024 239 q 771 44 872 88 q 556 0 669 0 q 340 44 440 0 q 163 163 239 88 q 44 340 88 239 q 0 556 0 440 q 44 771 0 669 q 163 948 88 872 q 340 1067 239 1024 q 556 1111 440 1111 q 771 1067 669 1111 q 948 948 872 1024 q 1067 771 1024 872 q 1111 556 1111 669 z "},"_":{"ha":1207,"x_min":0,"x_max":1111,"o":"m 364 590 q 349 626 364 611 q 313 642 333 642 q 276 626 292 642 q 260 590 260 611 q 276 553 260 569 q 313 538 292 538 q 349 553 333 538 q 364 590 364 569 m 885 656 q 859 716 885 692 q 799 740 833 740 q 738 716 764 740 q 711 656 711 692 q 738 596 711 621 q 799 571 764 571 q 859 596 833 571 q 885 656 885 621 m 417 590 q 386 517 417 547 q 313 486 356 486 q 239 517 269 486 q 208 590 208 547 q 239 664 208 633 q 313 694 269 694 q 386 664 356 694 q 417 590 417 633 m 686 417 l 425 417 l 425 486 l 686 486 l 686 417 m 972 656 q 958 589 972 619 q 921 535 944 558 q 865 499 897 513 q 799 486 833 486 q 731 499 763 486 q 676 535 700 513 q 639 589 653 558 q 625 656 625 619 q 639 722 625 690 q 677 776 653 753 q 733 812 701 799 q 799 825 764 825 q 865 812 833 825 q 919 776 896 799 q 958 722 943 753 q 972 656 972 690 m 1042 556 q 1003 744 1042 656 q 898 898 964 832 q 744 1003 832 964 q 556 1042 656 1042 q 369 1003 457 1042 q 214 899 281 965 q 108 745 147 833 q 69 556 69 657 q 108 367 69 456 q 212 212 146 278 q 367 108 278 146 q 556 69 456 69 q 745 108 657 69 q 899 214 833 147 q 1003 369 965 281 q 1042 556 1042 457 m 1111 556 q 1067 340 1111 440 q 948 163 1024 239 q 771 44 872 88 q 556 0 669 0 q 340 44 440 0 q 163 163 239 88 q 44 340 88 239 q 0 556 0 440 q 44 771 0 669 q 163 948 88 872 q 340 1067 239 1024 q 556 1111 440 1111 q 771 1067 669 1111 q 948 948 872 1024 q 1067 771 1024 872 q 1111 556 1111 669 z "},"a":{"ha":1206,"x_min":0,"x_max":1111,"o":"m 486 347 q 492 299 486 324 q 507 253 497 274 q 529 221 517 233 q 556 208 542 208 q 581 221 568 208 q 603 253 593 233 q 619 299 613 274 q 625 347 625 324 l 486 347 m 764 347 l 694 347 q 684 271 694 308 q 656 204 674 233 q 612 157 638 175 q 556 139 586 139 q 499 157 525 139 q 456 204 474 175 q 427 271 438 233 q 417 347 417 308 l 347 347 l 347 417 l 764 417 l 764 347 m 486 625 l 278 625 l 278 694 l 486 694 l 486 625 m 833 625 l 625 625 l 625 694 l 833 694 l 833 625 m 1042 556 q 1003 744 1042 656 q 898 898 964 832 q 744 1003 832 964 q 556 1042 656 1042 q 369 1003 457 1042 q 214 899 281 965 q 108 745 147 833 q 69 556 69 657 q 108 367 69 456 q 212 212 146 278 q 367 108 278 146 q 556 69 456 69 q 745 108 657 69 q 899 214 833 147 q 1003 369 965 281 q 1042 556 1042 457 m 1111 556 q 1067 340 1111 440 q 948 163 1024 239 q 771 44 872 88 q 556 0 669 0 q 340 44 440 0 q 163 163 239 88 q 44 340 88 239 q 0 556 0 440 q 44 771 0 669 q 163 948 88 872 q 340 1067 239 1024 q 556 1111 440 1111 q 771 1067 669 1111 q 948 948 872 1024 q 1067 771 1024 872 q 1111 556 1111 669 z "},"b":{"ha":1206,"x_min":0,"x_max":1111,"o":"m 694 347 l 417 347 l 417 417 l 694 417 l 694 347 m 486 625 l 278 625 l 278 694 l 486 694 l 486 625 m 833 625 l 625 625 l 625 694 l 833 694 l 833 625 m 1042 556 q 1003 744 1042 656 q 898 898 964 832 q 744 1003 832 964 q 556 1042 656 1042 q 369 1003 457 1042 q 214 899 281 965 q 108 745 147 833 q 69 556 69 657 q 108 367 69 456 q 212 212 146 278 q 367 108 278 146 q 556 69 456 69 q 745 108 657 69 q 899 214 833 147 q 1003 369 965 281 q 1042 556 1042 457 m 1111 556 q 1067 340 1111 440 q 948 163 1024 239 q 771 44 872 88 q 556 0 669 0 q 340 44 440 0 q 163 163 239 88 q 44 340 88 239 q 0 556 0 440 q 44 771 0 669 q 163 948 88 872 q 340 1067 239 1024 q 556 1111 440 1111 q 771 1067 669 1111 q 948 948 872 1024 q 1067 771 1024 872 q 1111 556 1111 669 z "},"c":{"ha":1206,"x_min":0,"x_max":1111,"o":"m 903 556 q 875 422 903 485 q 800 311 847 358 q 690 236 753 264 q 556 208 626 208 q 420 235 483 208 q 310 310 357 263 q 235 420 263 357 q 208 556 208 483 l 278 556 q 299 447 278 497 q 358 358 321 396 q 447 299 396 321 q 556 278 497 278 q 663 300 613 278 q 751 360 714 322 q 811 448 789 397 q 833 556 833 499 l 903 556 m 486 660 q 456 586 486 617 q 382 556 425 556 q 308 586 339 556 q 278 660 278 617 q 308 733 278 703 q 382 764 339 764 q 456 733 425 764 q 486 660 486 703 m 486 911 l 339 764 l 290 813 l 438 960 l 486 911 m 833 660 q 803 586 833 617 q 729 556 772 556 q 656 586 686 556 q 625 660 625 617 q 656 733 625 703 q 729 764 686 764 q 803 733 772 764 q 833 660 833 703 m 833 813 l 785 764 l 638 911 l 686 960 l 833 813 m 1042 556 q 1003 744 1042 656 q 898 898 964 832 q 744 1003 832 964 q 556 1042 656 1042 q 369 1003 457 1042 q 214 899 281 965 q 108 745 147 833 q 69 556 69 657 q 108 367 69 456 q 212 212 146 278 q 367 108 278 146 q 556 69 456 69 q 745 108 657 69 q 899 214 833 147 q 1003 369 965 281 q 1042 556 1042 457 m 1111 556 q 1067 340 1111 440 q 948 163 1024 239 q 771 44 872 88 q 556 0 669 0 q 340 44 440 0 q 163 163 239 88 q 44 340 88 239 q 0 556 0 440 q 44 771 0 669 q 163 948 88 872 q 340 1067 239 1024 q 556 1111 440 1111 q 771 1067 669 1111 q 948 948 872 1024 q 1067 771 1024 872 q 1111 556 1111 669 z "},"d":{"ha":1206,"x_min":0,"x_max":1111,"o":"m 486 660 q 456 586 486 617 q 382 556 425 556 q 308 586 339 556 q 278 660 278 617 q 308 733 278 703 q 382 764 339 764 q 456 733 425 764 q 486 660 486 703 m 833 660 q 803 586 833 617 q 729 556 772 556 q 656 586 686 556 q 625 660 625 617 q 656 733 625 703 q 729 764 686 764 q 803 733 772 764 q 833 660 833 703 m 833 208 q 811 316 833 265 q 751 404 789 367 q 663 464 714 442 q 556 486 613 486 q 448 464 499 486 q 360 404 397 442 q 300 316 322 367 q 278 208 278 265 l 215 208 q 556 69 354 69 q 896 208 757 69 l 833 208 m 1042 556 q 1016 709 1042 635 q 944 844 990 783 q 835 951 899 906 q 694 1021 771 997 l 821 894 l 772 846 l 625 993 l 663 1029 q 556 1042 610 1042 q 439 1028 490 1042 l 474 993 l 326 846 l 278 894 l 399 1015 q 265 944 325 990 q 160 837 204 897 q 93 704 117 776 q 69 556 69 632 q 208 215 69 354 q 238 348 210 286 q 314 456 267 410 q 424 528 361 501 q 556 556 486 556 q 688 528 625 556 q 797 456 750 501 q 873 348 844 410 q 903 215 901 286 q 1042 556 1042 354 m 1111 556 q 1067 340 1111 440 q 948 163 1024 239 q 771 44 872 88 q 556 0 669 0 q 340 44 440 0 q 163 163 239 88 q 44 340 88 239 q 0 556 0 440 q 44 771 0 669 q 163 948 88 872 q 340 1067 239 1024 q 556 1111 440 1111 q 771 1067 669 1111 q 948 948 872 1024 q 1067 771 1024 872 q 1111 556 1111 669 z "},"e":{"ha":1206,"x_min":0,"x_max":1111,"o":"m 833 347 l 278 347 l 278 417 l 833 417 l 833 347 m 486 660 q 456 586 486 617 q 382 556 425 556 q 308 586 339 556 q 278 660 278 617 q 308 733 278 703 q 382 764 339 764 q 456 733 425 764 q 486 660 486 703 m 486 911 l 339 764 l 290 813 l 438 960 l 486 911 m 833 660 q 803 586 833 617 q 729 556 772 556 q 656 586 686 556 q 625 660 625 617 q 656 733 625 703 q 729 764 686 764 q 803 733 772 764 q 833 660 833 703 m 833 813 l 785 764 l 638 911 l 686 960 l 833 813 m 1042 556 q 1003 744 1042 656 q 898 898 964 832 q 744 1003 832 964 q 556 1042 656 1042 q 369 1003 457 1042 q 214 899 281 965 q 108 745 147 833 q 69 556 69 657 q 108 367 69 456 q 212 212 146 278 q 367 108 278 146 q 556 69 456 69 q 745 108 657 69 q 899 214 833 147 q 1003 369 965 281 q 1042 556 1042 457 m 1111 556 q 1067 340 1111 440 q 948 163 1024 239 q 771 44 872 88 q 556 0 669 0 q 340 44 440 0 q 163 163 239 88 q 44 340 88 239 q 0 556 0 440 q 44 771 0 669 q 163 948 88 872 q 340 1067 239 1024 q 556 1111 440 1111 q 771 1067 669 1111 q 948 948 872 1024 q 1067 771 1024 872 q 1111 556 1111 669 z "},"f":{"ha":1206,"x_min":0,"x_max":1111,"o":"m 286 417 q 324 333 297 371 q 386 267 350 294 q 466 224 422 239 q 556 208 510 208 q 645 224 601 208 q 725 267 689 239 q 788 333 761 294 q 825 417 814 371 l 286 417 m 903 486 q 875 352 903 415 q 800 242 847 289 q 690 167 753 194 q 556 139 626 139 q 420 166 483 139 q 310 240 357 193 q 235 351 263 288 q 208 486 208 414 l 903 486 m 478 672 q 447 599 478 629 q 374 568 417 568 q 301 599 332 568 q 269 672 269 629 q 301 745 269 714 q 374 776 332 776 q 447 745 417 776 q 478 672 478 714 m 478 924 l 331 776 l 282 825 l 429 972 l 478 924 m 825 672 q 794 599 825 629 q 721 568 764 568 q 648 599 679 568 q 617 672 617 629 q 648 745 617 714 q 721 776 679 776 q 794 745 764 776 q 825 672 825 714 m 825 825 l 776 776 l 629 924 l 678 972 l 825 825 m 1042 556 q 1003 744 1042 656 q 898 898 964 832 q 744 1003 832 964 q 556 1042 656 1042 q 369 1003 457 1042 q 214 899 281 965 q 108 745 147 833 q 69 556 69 657 q 108 367 69 456 q 212 212 146 278 q 367 108 278 146 q 556 69 456 69 q 745 108 657 69 q 899 214 833 147 q 1003 369 965 281 q 1042 556 1042 457 m 1111 556 q 1067 340 1111 440 q 948 163 1024 239 q 771 44 872 88 q 556 0 669 0 q 340 44 440 0 q 163 163 239 88 q 44 340 88 239 q 0 556 0 440 q 44 771 0 669 q 163 948 88 872 q 340 1067 239 1024 q 556 1111 440 1111 q 771 1067 669 1111 q 948 948 872 1024 q 1067 771 1024 872 q 1111 556 1111 669 z "},"g":{"ha":1206,"x_min":0,"x_max":1111,"o":"m 286 417 q 324 333 297 371 q 386 267 350 294 q 466 224 422 239 q 556 208 510 208 q 645 224 601 208 q 725 267 689 239 q 788 333 761 294 q 825 417 814 371 l 286 417 m 417 694 q 397 744 417 724 q 347 764 376 764 q 298 744 318 764 q 278 694 278 724 q 298 645 278 665 q 347 625 318 625 q 397 645 376 625 q 417 694 417 665 m 833 694 q 813 744 833 724 q 764 764 793 764 q 715 744 735 764 q 694 694 694 724 q 715 645 694 665 q 764 625 735 625 q 813 645 793 625 q 833 694 833 665 m 903 486 q 875 352 903 415 q 800 242 847 289 q 690 167 753 194 q 556 139 626 139 q 420 166 483 139 q 310 240 357 193 q 235 351 263 288 q 208 486 208 414 l 903 486 m 486 694 q 475 640 486 665 q 445 595 464 614 q 401 566 426 576 q 347 556 376 556 q 248 595 288 556 q 208 694 208 635 q 219 749 208 724 q 248 792 229 774 q 292 822 267 811 q 347 833 318 833 q 446 793 406 833 q 486 694 486 753 m 903 694 q 892 640 903 665 q 862 595 881 614 q 818 566 843 576 q 764 556 793 556 q 665 595 704 556 q 625 694 625 635 q 635 749 625 724 q 665 792 646 774 q 709 822 683 811 q 764 833 735 833 q 863 793 822 833 q 903 694 903 753 m 1042 556 q 1003 744 1042 656 q 898 898 964 832 q 744 1003 832 964 q 556 1042 656 1042 q 369 1003 457 1042 q 214 899 281 965 q 108 745 147 833 q 69 556 69 657 q 108 367 69 456 q 212 212 146 278 q 367 108 278 146 q 556 69 456 69 q 745 108 657 69 q 899 214 833 147 q 1003 369 965 281 q 1042 556 1042 457 m 1111 556 q 1067 340 1111 440 q 948 163 1024 239 q 771 44 872 88 q 556 0 669 0 q 340 44 440 0 q 163 163 239 88 q 44 340 88 239 q 0 556 0 440 q 44 771 0 669 q 163 948 88 872 q 340 1067 239 1024 q 556 1111 440 1111 q 771 1067 669 1111 q 948 948 872 1024 q 1067 771 1024 872 q 1111 556 1111 669 z "},"h":{"ha":1196,"x_min":0,"x_max":1106,"o":"m 622 346 q 602 297 622 317 q 553 276 582 276 q 504 297 525 276 q 483 346 483 317 q 504 394 483 374 q 553 415 525 415 q 602 394 582 415 q 622 346 622 374 m 483 657 q 453 583 483 614 q 381 553 422 553 q 307 583 338 553 q 276 657 276 614 q 307 731 276 700 q 381 761 338 761 q 453 731 422 761 q 483 657 483 700 m 829 657 q 799 583 829 614 q 726 553 768 553 q 653 583 683 553 q 622 657 622 614 q 653 731 622 700 q 726 761 683 761 q 799 731 768 761 q 829 657 829 700 m 1038 553 q 999 740 1038 651 q 894 894 960 828 q 740 999 828 960 q 553 1038 651 1038 q 366 999 454 1038 q 212 895 278 961 q 108 741 146 829 q 69 553 69 653 q 108 365 69 453 q 212 212 146 278 q 365 108 278 146 q 553 69 453 69 q 741 108 653 69 q 895 212 829 146 q 999 366 961 278 q 1038 553 1038 454 m 1106 553 q 1062 340 1106 440 q 943 163 1018 239 q 767 44 868 88 q 553 0 667 0 q 338 44 439 0 q 163 163 238 88 q 44 338 88 238 q 0 553 0 439 q 23 708 0 633 q 88 849 46 783 q 188 967 129 914 q 319 1054 247 1019 l 276 1097 l 424 1244 l 472 1196 l 340 1064 q 553 1106 442 1106 q 746 1071 658 1106 l 622 1196 l 671 1244 l 818 1097 l 778 1058 q 913 972 853 1025 q 1016 853 974 919 q 1082 710 1058 786 q 1106 553 1106 633 z "},"i":{"ha":1206,"x_min":0,"x_max":1111,"o":"m 556 750 q 536 720 556 743 q 494 669 517 697 q 452 613 471 642 q 433 564 433 583 q 434 560 433 561 q 435 556 435 558 q 346 617 379 593 q 295 661 313 642 q 272 699 278 681 q 267 744 267 718 q 288 806 267 781 q 344 831 310 831 q 414 778 401 831 q 483 831 438 831 q 556 750 556 831 m 853 758 q 836 697 853 731 q 794 631 819 664 q 737 571 768 599 q 675 528 706 543 q 665 551 668 542 q 654 575 661 561 q 633 611 647 589 q 588 674 618 633 q 556 753 556 718 q 578 810 556 788 q 635 833 600 833 q 704 785 692 833 q 774 833 728 833 q 829 811 806 833 q 853 758 853 789 m 868 246 q 829 342 868 290 q 726 253 789 292 q 831 208 783 208 q 868 246 868 208 m 1042 556 q 1003 744 1042 656 q 898 898 964 832 q 744 1003 832 964 q 556 1042 656 1042 q 369 1003 457 1042 q 214 899 281 965 q 108 745 147 833 q 69 556 69 657 q 108 367 69 456 q 212 212 146 278 q 367 108 278 146 q 556 69 456 69 q 810 140 693 69 q 661 218 728 150 l 671 228 q 556 208 608 208 q 420 235 483 208 q 310 310 357 263 q 235 420 263 357 q 208 556 208 483 l 278 556 q 299 447 278 497 q 358 358 321 396 q 447 299 396 321 q 556 278 497 278 q 663 300 613 278 q 751 360 714 322 q 811 448 789 397 q 833 556 833 499 l 903 556 q 868 404 903 472 q 936 254 935 329 q 1042 556 1042 385 m 1111 556 q 1067 340 1111 440 q 948 163 1024 239 q 771 44 872 88 q 556 0 669 0 q 340 44 440 0 q 163 163 239 88 q 44 340 88 239 q 0 556 0 440 q 44 771 0 669 q 163 948 88 872 q 340 1067 239 1024 q 556 1111 440 1111 q 771 1067 669 1111 q 948 948 872 1024 q 1067 771 1024 872 q 1111 556 1111 669 z "},"j":{"ha":1206,"x_min":0,"x_max":1111,"o":"m 903 556 q 875 422 903 485 q 800 311 847 358 q 690 236 753 264 q 556 208 626 208 q 420 235 483 208 q 310 310 357 263 q 235 420 263 357 q 208 556 208 483 l 278 556 q 299 447 278 497 q 358 358 321 396 q 447 299 396 321 q 556 278 497 278 q 663 300 613 278 q 751 360 714 322 q 811 448 789 397 q 833 556 833 499 l 903 556 m 417 625 q 411 672 417 647 q 396 717 406 697 q 374 751 386 738 q 347 764 361 764 q 321 751 333 764 q 299 717 308 738 q 283 672 289 697 q 278 625 278 647 l 208 625 q 219 701 208 664 q 247 768 229 739 q 291 815 265 797 q 347 833 317 833 q 403 815 378 833 q 447 768 429 797 q 476 701 465 739 q 486 625 486 664 l 417 625 m 833 625 q 828 672 833 647 q 813 717 822 697 q 790 751 803 738 q 764 764 778 764 q 738 751 750 764 q 715 717 725 738 q 700 672 706 697 q 694 625 694 647 l 625 625 q 635 701 625 664 q 664 768 646 739 q 708 815 682 797 q 764 833 733 833 q 820 815 794 833 q 864 768 846 797 q 892 701 882 739 q 903 625 903 664 l 833 625 m 1042 556 q 1003 744 1042 656 q 898 898 964 832 q 744 1003 832 964 q 556 1042 656 1042 q 369 1003 457 1042 q 214 899 281 965 q 108 745 147 833 q 69 556 69 657 q 108 367 69 456 q 212 212 146 278 q 367 108 278 146 q 556 69 456 69 q 745 108 657 69 q 899 214 833 147 q 1003 369 965 281 q 1042 556 1042 457 m 1111 556 q 1067 340 1111 440 q 948 163 1024 239 q 771 44 872 88 q 556 0 669 0 q 340 44 440 0 q 163 163 239 88 q 44 340 88 239 q 0 556 0 440 q 44 771 0 669 q 163 948 88 872 q 340 1067 239 1024 q 556 1111 440 1111 q 771 1067 669 1111 q 948 948 872 1024 q 1067 771 1024 872 q 1111 556 1111 669 z "},"k":{"ha":1206,"x_min":0,"x_max":1111,"o":"m 417 625 q 411 672 417 647 q 396 717 406 697 q 374 751 386 738 q 347 764 361 764 q 321 751 333 764 q 299 717 308 738 q 283 672 289 697 q 278 625 278 647 l 208 625 q 219 701 208 664 q 247 768 229 739 q 291 815 265 797 q 347 833 317 833 q 403 815 378 833 q 447 768 429 797 q 476 701 465 739 q 486 625 486 664 l 417 625 m 833 625 q 828 672 833 647 q 813 717 822 697 q 790 751 803 738 q 764 764 778 764 q 738 751 750 764 q 715 717 725 738 q 700 672 706 697 q 694 625 694 647 l 625 625 q 635 701 625 664 q 664 768 646 739 q 708 815 682 797 q 764 833 733 833 q 820 815 794 833 q 864 768 846 797 q 892 701 882 739 q 903 625 903 664 l 833 625 m 833 208 q 811 316 833 265 q 751 404 789 367 q 663 464 714 442 q 556 486 613 486 q 448 464 499 486 q 360 404 397 442 q 300 316 322 367 q 278 208 278 265 l 215 208 q 556 69 354 69 q 896 208 757 69 l 833 208 m 1042 556 q 1003 744 1042 656 q 898 898 964 832 q 744 1003 832 964 q 556 1042 656 1042 q 369 1003 457 1042 q 214 899 281 965 q 108 745 147 833 q 69 556 69 657 q 208 215 69 354 q 238 348 210 286 q 314 456 267 410 q 424 528 361 501 q 556 556 486 556 q 688 528 625 556 q 797 456 750 501 q 873 348 844 410 q 903 215 901 286 q 1042 556 1042 354 m 1111 556 q 1067 340 1111 440 q 948 163 1024 239 q 771 44 872 88 q 556 0 669 0 q 340 44 440 0 q 163 163 239 88 q 44 340 88 239 q 0 556 0 440 q 44 771 0 669 q 163 948 88 872 q 340 1067 239 1024 q 556 1111 440 1111 q 771 1067 669 1111 q 948 948 872 1024 q 1067 771 1024 872 q 1111 556 1111 669 z "},"l":{"ha":1206,"x_min":0,"x_max":1111,"o":"m 764 347 l 347 347 l 347 417 l 764 417 l 764 347 m 417 625 q 411 672 417 647 q 396 717 406 697 q 374 751 386 738 q 347 764 361 764 q 321 751 333 764 q 299 717 308 738 q 283 672 289 697 q 278 625 278 647 l 208 625 q 219 701 208 664 q 247 768 229 739 q 291 815 265 797 q 347 833 317 833 q 403 815 378 833 q 447 768 429 797 q 476 701 465 739 q 486 625 486 664 l 417 625 m 833 625 q 828 672 833 647 q 813 717 822 697 q 790 751 803 738 q 764 764 778 764 q 738 751 750 764 q 715 717 725 738 q 700 672 706 697 q 694 625 694 647 l 625 625 q 635 701 625 664 q 664 768 646 739 q 708 815 682 797 q 764 833 733 833 q 820 815 794 833 q 864 768 846 797 q 892 701 882 739 q 903 625 903 664 l 833 625 m 1042 556 q 1003 744 1042 656 q 898 898 964 832 q 744 1003 832 964 q 556 1042 656 1042 q 369 1003 457 1042 q 214 899 281 965 q 108 745 147 833 q 69 556 69 657 q 108 367 69 456 q 212 212 146 278 q 367 108 278 146 q 556 69 456 69 q 745 108 657 69 q 899 214 833 147 q 1003 369 965 281 q 1042 556 1042 457 m 1111 556 q 1067 340 1111 440 q 948 163 1024 239 q 771 44 872 88 q 556 0 669 0 q 340 44 440 0 q 163 163 239 88 q 44 340 88 239 q 0 556 0 440 q 44 771 0 669 q 163 948 88 872 q 340 1067 239 1024 q 556 1111 440 1111 q 771 1067 669 1111 q 948 948 872 1024 q 1067 771 1024 872 q 1111 556 1111 669 z "},"m":{"ha":1206,"x_min":0,"x_max":1111,"o":"m 286 417 q 324 333 297 371 q 386 267 350 294 q 466 224 422 239 q 556 208 510 208 q 645 224 601 208 q 725 267 689 239 q 788 333 761 294 q 825 417 814 371 l 286 417 m 903 486 q 875 352 903 415 q 800 242 847 289 q 690 167 753 194 q 556 139 626 139 q 420 166 483 139 q 310 240 357 193 q 235 351 263 288 q 208 486 208 414 l 903 486 m 417 613 q 411 660 417 635 q 396 705 406 685 q 374 738 386 725 q 347 751 361 751 q 321 738 333 751 q 299 705 308 725 q 283 660 289 685 q 278 613 278 635 l 208 613 q 219 689 208 651 q 247 756 229 726 q 291 803 265 785 q 347 821 317 821 q 403 803 378 821 q 447 756 429 785 q 476 689 465 726 q 486 613 486 651 l 417 613 m 833 613 q 828 660 833 635 q 813 705 822 685 q 790 738 803 725 q 764 751 778 751 q 738 738 750 751 q 715 705 725 725 q 700 660 706 685 q 694 613 694 635 l 625 613 q 635 689 625 651 q 664 756 646 726 q 708 803 682 785 q 764 821 733 821 q 820 803 794 821 q 864 756 846 785 q 892 689 882 726 q 903 613 903 651 l 833 613 m 1042 556 q 1003 744 1042 656 q 898 898 964 832 q 744 1003 832 964 q 556 1042 656 1042 q 369 1003 457 1042 q 214 899 281 965 q 108 745 147 833 q 69 556 69 657 q 108 367 69 456 q 212 212 146 278 q 367 108 278 146 q 556 69 456 69 q 745 108 657 69 q 899 214 833 147 q 1003 369 965 281 q 1042 556 1042 457 m 1111 556 q 1067 340 1111 440 q 948 163 1024 239 q 771 44 872 88 q 556 0 669 0 q 340 44 440 0 q 163 163 239 88 q 44 340 88 239 q 0 556 0 440 q 44 771 0 669 q 163 948 88 872 q 340 1067 239 1024 q 556 1111 440 1111 q 771 1067 669 1111 q 948 948 872 1024 q 1067 771 1024 872 q 1111 556 1111 669 z "},"n":{"ha":1206,"x_min":0,"x_max":1111,"o":"m 417 625 q 411 672 417 647 q 396 717 406 697 q 374 751 386 738 q 347 764 361 764 q 321 751 333 764 q 299 717 308 738 q 283 672 289 697 q 278 625 278 647 l 208 625 q 219 701 208 664 q 247 768 229 739 q 291 815 265 797 q 347 833 317 833 q 403 815 378 833 q 447 768 429 797 q 476 701 465 739 q 486 625 486 664 l 417 625 m 833 625 q 828 672 833 647 q 813 717 822 697 q 790 751 803 738 q 764 764 778 764 q 738 751 750 764 q 715 717 725 738 q 700 672 706 697 q 694 625 694 647 l 625 625 q 635 701 625 664 q 664 768 646 739 q 708 815 682 797 q 764 833 733 833 q 820 815 794 833 q 864 768 846 797 q 892 701 882 739 q 903 625 903 664 l 833 625 m 215 208 q 556 69 354 69 q 896 208 757 69 l 215 208 m 825 278 q 788 360 814 322 q 725 426 761 399 q 645 470 689 454 q 556 486 601 486 q 466 471 510 486 q 386 428 422 456 q 324 362 350 400 q 286 278 297 324 l 825 278 m 1042 556 q 1003 744 1042 656 q 898 898 964 832 q 744 1003 832 964 q 556 1042 656 1042 q 369 1003 457 1042 q 214 899 281 965 q 108 745 147 833 q 69 556 69 657 q 208 215 69 354 q 238 348 210 286 q 314 456 267 410 q 424 528 361 501 q 556 556 486 556 q 688 528 625 556 q 797 456 750 501 q 873 348 844 410 q 903 215 901 286 q 1042 556 1042 354 m 1111 556 q 1067 340 1111 440 q 948 163 1024 239 q 771 44 872 88 q 556 0 669 0 q 340 44 440 0 q 163 163 239 88 q 44 340 88 239 q 0 556 0 440 q 44 771 0 669 q 163 948 88 872 q 340 1067 239 1024 q 556 1111 440 1111 q 771 1067 669 1111 q 948 948 872 1024 q 1067 771 1024 872 q 1111 556 1111 669 z "},"o":{"ha":1206,"x_min":0,"x_max":1111,"o":"m 694 347 q 683 292 694 318 q 653 248 672 267 q 610 219 635 229 q 556 208 585 208 q 456 248 496 208 q 417 347 417 288 q 427 401 417 376 q 456 445 438 426 q 501 475 475 464 q 556 486 526 486 q 654 446 614 486 q 694 347 694 406 m 486 660 q 456 586 486 617 q 382 556 425 556 q 308 586 339 556 q 278 660 278 617 q 308 733 278 703 q 382 764 339 764 q 456 733 425 764 q 486 660 486 703 m 486 911 l 339 764 l 290 813 l 438 960 l 486 911 m 833 660 q 803 586 833 617 q 729 556 772 556 q 656 586 686 556 q 625 660 625 617 q 656 733 625 703 q 729 764 686 764 q 803 733 772 764 q 833 660 833 703 m 833 813 l 785 764 l 638 911 l 686 960 l 833 813 m 1042 556 q 1003 744 1042 656 q 898 898 964 832 q 744 1003 832 964 q 556 1042 656 1042 q 369 1003 457 1042 q 214 899 281 965 q 108 745 147 833 q 69 556 69 657 q 108 367 69 456 q 212 212 146 278 q 367 108 278 146 q 556 69 456 69 q 745 108 657 69 q 899 214 833 147 q 1003 369 965 281 q 1042 556 1042 457 m 1111 556 q 1067 340 1111 440 q 948 163 1024 239 q 771 44 872 88 q 556 0 669 0 q 340 44 440 0 q 163 163 239 88 q 44 340 88 239 q 0 556 0 440 q 44 771 0 669 q 163 948 88 872 q 340 1067 239 1024 q 556 1111 440 1111 q 771 1067 669 1111 q 948 948 872 1024 q 1067 771 1024 872 q 1111 556 1111 669 z "},"p":{"ha":1194,"x_min":0,"x_max":1106,"o":"m 761 668 q 731 596 761 626 q 657 565 700 565 q 583 596 614 565 q 553 668 553 626 q 522 596 553 626 q 450 565 492 565 q 376 596 407 565 q 346 668 346 626 q 376 742 346 711 q 450 772 407 772 q 522 742 492 772 q 553 668 553 711 q 583 742 553 711 q 657 772 614 772 q 731 742 700 772 q 761 668 761 711 m 833 247 q 808 321 833 276 q 707 243 763 271 q 796 210 757 210 q 833 247 833 210 m 1038 553 q 999 740 1038 651 q 894 894 960 828 q 740 999 828 960 q 553 1038 651 1038 q 366 999 454 1038 q 212 895 278 961 q 108 741 146 829 q 69 553 69 653 q 108 365 69 453 q 212 212 146 278 q 365 108 278 146 q 553 69 453 69 q 807 142 693 69 l 785 140 q 631 217 707 140 q 553 207 597 207 q 419 235 482 207 q 309 309 356 263 q 235 419 263 356 q 207 553 207 482 l 276 553 q 298 445 276 496 q 357 357 319 394 q 445 298 394 319 q 553 276 496 276 q 659 299 608 276 q 747 358 710 321 q 807 446 785 396 q 829 553 829 496 l 899 553 q 853 381 899 461 q 901 249 901 315 q 897 213 901 229 q 1038 553 1038 357 m 1106 553 q 1062 340 1106 440 q 943 163 1018 239 q 767 44 868 88 q 553 0 667 0 q 338 44 439 0 q 163 163 238 88 q 44 338 88 238 q 0 553 0 439 q 23 708 0 633 q 88 849 46 783 q 188 967 129 914 q 319 1054 247 1019 l 276 1097 l 424 1244 l 472 1196 l 340 1064 q 553 1106 442 1106 q 746 1071 658 1106 l 622 1196 l 671 1244 l 818 1097 l 778 1058 q 913 972 853 1025 q 1016 853 974 919 q 1082 710 1058 786 q 1106 553 1106 633 z "},"q":{"ha":1206,"x_min":0,"x_max":1111,"o":"m 831 519 q 729 486 785 486 q 661 499 693 486 q 606 536 629 513 q 569 592 582 560 q 556 660 556 624 q 542 594 556 625 q 506 538 529 563 q 450 500 482 514 q 382 486 418 486 q 281 519 326 486 q 312 422 288 467 q 373 346 336 378 q 456 296 410 314 q 556 278 503 278 q 654 297 607 278 q 738 347 701 315 q 799 424 775 379 q 831 519 824 468 m 468 660 q 443 721 468 696 q 382 746 418 746 q 320 721 346 746 q 294 660 294 696 q 320 598 294 624 q 382 572 346 572 q 443 598 418 572 q 468 660 468 624 m 815 660 q 790 721 815 696 q 729 746 765 746 q 667 721 693 746 q 642 660 642 696 q 667 598 642 624 q 729 572 693 572 q 790 598 765 572 q 815 660 815 624 m 903 556 q 875 422 903 485 q 800 311 847 358 q 690 236 753 264 q 556 208 626 208 q 420 235 483 208 q 310 310 357 263 q 235 420 263 357 q 208 556 208 483 l 243 556 q 208 660 208 599 q 222 728 208 696 q 260 783 236 760 q 316 820 285 807 q 382 833 347 833 q 449 819 417 833 q 504 782 481 806 q 542 726 528 758 q 556 660 556 694 q 569 728 556 696 q 608 783 583 760 q 663 820 632 807 q 729 833 694 833 q 796 819 764 833 q 851 782 828 806 q 889 726 875 758 q 903 660 903 694 q 868 556 903 599 l 903 556 m 1042 556 q 1003 744 1042 656 q 898 898 964 832 q 744 1003 832 964 q 556 1042 656 1042 q 369 1003 457 1042 q 214 899 281 965 q 108 745 147 833 q 69 556 69 657 q 108 367 69 456 q 212 212 146 278 q 367 108 278 146 q 556 69 456 69 q 745 108 657 69 q 899 214 833 147 q 1003 369 965 281 q 1042 556 1042 457 m 1111 556 q 1067 340 1111 440 q 948 163 1024 239 q 771 44 872 88 q 556 0 669 0 q 340 44 440 0 q 163 163 239 88 q 44 340 88 239 q 0 556 0 440 q 44 771 0 669 q 163 948 88 872 q 340 1067 239 1024 q 556 1111 440 1111 q 771 1067 669 1111 q 948 948 872 1024 q 1067 771 1024 872 q 1111 556 1111 669 z "},"r":{"ha":1206,"x_min":0,"x_max":1111,"o":"m 903 556 q 875 422 903 485 q 800 311 847 358 q 690 236 753 264 q 556 208 626 208 q 420 235 483 208 q 310 310 357 263 q 235 420 263 357 q 208 556 208 483 l 278 556 q 299 447 278 497 q 358 358 321 396 q 447 299 396 321 q 556 278 497 278 q 663 300 613 278 q 751 360 714 322 q 811 448 789 397 q 833 556 833 499 l 903 556 m 1042 556 q 994 764 1042 671 l 903 764 l 903 694 q 888 639 903 664 q 849 595 874 614 q 794 566 825 576 q 729 556 763 556 q 665 566 696 556 q 609 595 633 576 q 570 639 585 614 q 556 694 556 664 q 541 639 556 664 q 502 595 526 614 q 447 566 478 576 q 382 556 415 556 q 317 566 349 556 q 262 595 286 576 q 223 639 238 614 q 208 694 208 664 l 208 764 l 117 764 q 69 556 69 671 q 108 367 69 456 q 212 212 146 278 q 367 108 278 146 q 556 69 456 69 q 745 108 657 69 q 899 214 833 147 q 1003 369 965 281 q 1042 556 1042 457 m 954 833 q 780 986 886 931 q 556 1042 674 1042 q 331 986 438 1042 q 157 833 225 931 l 954 833 m 1111 556 q 1067 340 1111 440 q 948 163 1024 239 q 771 44 872 88 q 556 0 669 0 q 340 44 440 0 q 163 163 239 88 q 44 340 88 239 q 0 556 0 440 q 69 825 0 697 l 69 833 l 75 833 q 163 949 111 897 q 278 1036 215 1000 q 412 1092 342 1072 q 556 1111 482 1111 q 699 1092 628 1111 q 833 1036 769 1072 q 948 949 896 1000 q 1036 833 1000 897 l 1042 833 l 1042 825 q 1111 556 1111 697 z "},"s":{"ha":1206,"x_min":0,"x_max":1111,"o":"m 833 347 l 278 347 l 278 417 l 833 417 l 833 347 m 486 660 q 456 586 486 617 q 382 556 425 556 q 308 586 339 556 q 278 660 278 617 q 308 732 278 701 q 379 764 338 763 l 290 854 l 339 903 l 486 756 l 460 729 q 486 660 486 699 m 833 660 q 803 586 833 617 q 729 556 772 556 q 656 586 686 556 q 625 660 625 617 q 656 733 625 703 q 729 764 686 764 q 803 733 772 764 q 833 660 833 703 m 833 833 l 625 833 l 625 903 l 833 903 l 833 833 m 1042 556 q 1003 744 1042 656 q 898 898 964 832 q 744 1003 832 964 q 556 1042 656 1042 q 369 1003 457 1042 q 214 899 281 965 q 108 745 147 833 q 69 556 69 657 q 108 367 69 456 q 212 212 146 278 q 367 108 278 146 q 556 69 456 69 q 745 108 657 69 q 899 214 833 147 q 1003 369 965 281 q 1042 556 1042 457 m 1111 556 q 1067 340 1111 440 q 948 163 1024 239 q 771 44 872 88 q 556 0 669 0 q 340 44 440 0 q 163 163 239 88 q 44 340 88 239 q 0 556 0 440 q 44 771 0 669 q 163 948 88 872 q 340 1067 239 1024 q 556 1111 440 1111 q 771 1067 669 1111 q 948 948 872 1024 q 1067 771 1024 872 q 1111 556 1111 669 z "},"t":{"ha":1206,"x_min":0,"x_max":1111,"o":"m 286 440 q 324 356 297 394 q 386 290 350 318 q 466 247 422 263 q 556 232 510 232 q 645 247 601 232 q 725 290 689 263 q 788 356 761 318 q 825 440 814 394 l 286 440 m 468 699 q 443 759 468 733 q 382 785 418 785 q 320 759 346 785 q 294 699 294 733 q 320 637 294 663 q 382 611 346 611 q 443 637 418 611 q 468 699 468 663 m 815 699 q 790 759 815 733 q 729 785 765 785 q 667 759 693 785 q 642 699 642 733 q 667 637 642 663 q 729 611 693 611 q 790 637 765 611 q 815 699 815 663 m 903 510 q 875 376 903 439 q 800 265 847 313 q 690 190 753 218 q 556 163 626 163 q 420 190 483 163 q 310 264 357 217 q 235 374 263 311 q 208 510 208 438 l 903 510 m 903 699 q 890 633 903 664 q 853 577 876 601 q 797 539 829 553 q 729 525 765 525 q 661 538 693 525 q 606 575 629 551 q 569 631 582 599 q 556 699 556 663 q 542 633 556 664 q 506 577 529 601 q 450 539 482 553 q 382 525 418 525 q 314 538 346 525 q 258 575 282 551 q 222 631 235 599 q 208 699 208 663 q 222 765 208 733 q 260 821 236 797 q 315 858 283 844 q 382 872 346 872 q 450 858 418 872 q 506 819 482 843 q 542 765 529 796 q 556 699 556 733 q 569 765 556 733 q 607 821 583 797 q 662 858 631 844 q 729 872 693 872 q 797 858 765 872 q 853 819 829 843 q 890 765 876 796 q 903 699 903 733 m 1042 556 q 1003 744 1042 656 q 898 898 964 832 q 744 1003 832 964 q 556 1042 656 1042 q 369 1003 457 1042 q 214 899 281 965 q 108 745 147 833 q 69 556 69 657 q 108 367 69 456 q 212 212 146 278 q 367 108 278 146 q 556 69 456 69 q 745 108 657 69 q 899 214 833 147 q 1003 369 965 281 q 1042 556 1042 457 m 1111 556 q 1067 340 1111 440 q 948 163 1024 239 q 771 44 872 88 q 556 0 669 0 q 340 44 440 0 q 163 163 239 88 q 44 340 88 239 q 0 556 0 440 q 44 771 0 669 q 163 948 88 872 q 340 1067 239 1024 q 556 1111 440 1111 q 771 1067 669 1111 q 948 948 872 1024 q 1067 771 1024 872 q 1111 556 1111 669 z "},"u":{"ha":1206,"x_min":0,"x_max":1111,"o":"m 625 278 q 605 228 625 249 q 556 208 585 208 q 506 228 526 208 q 486 278 486 249 q 506 327 486 307 q 556 347 526 347 q 605 327 585 347 q 625 278 625 307 m 486 660 q 456 586 486 617 q 382 556 425 556 q 308 586 339 556 q 278 660 278 617 q 308 732 278 701 q 379 764 338 763 l 290 854 l 339 903 l 486 756 l 460 729 q 486 660 486 699 m 833 660 q 803 586 833 617 q 729 556 772 556 q 656 586 686 556 q 625 660 625 617 q 656 733 625 703 q 729 764 686 764 q 803 733 772 764 q 833 660 833 703 m 833 833 l 625 833 l 625 903 l 833 903 l 833 833 m 1042 556 q 1003 744 1042 656 q 898 898 964 832 q 744 1003 832 964 q 556 1042 656 1042 q 369 1003 457 1042 q 214 899 281 965 q 108 745 147 833 q 69 556 69 657 q 108 367 69 456 q 212 212 146 278 q 367 108 278 146 q 556 69 456 69 q 745 108 657 69 q 899 214 833 147 q 1003 369 965 281 q 1042 556 1042 457 m 1111 556 q 1067 340 1111 440 q 948 163 1024 239 q 771 44 872 88 q 556 0 669 0 q 340 44 440 0 q 163 163 239 88 q 44 340 88 239 q 0 556 0 440 q 44 771 0 669 q 163 948 88 872 q 340 1067 239 1024 q 556 1111 440 1111 q 771 1067 669 1111 q 948 948 872 1024 q 1067 771 1024 872 q 1111 556 1111 669 z "},"v":{"ha":1196,"x_min":0,"x_max":1106,"o":"m 467 657 q 441 717 467 692 q 381 743 415 743 q 319 717 344 743 q 294 657 294 692 q 319 596 294 621 q 381 571 344 571 q 441 596 415 571 q 467 657 467 621 m 813 657 q 787 717 813 692 q 726 743 761 743 q 665 717 690 743 q 639 657 639 692 q 665 596 639 621 q 726 571 690 571 q 787 596 761 571 q 813 657 813 621 m 622 346 q 602 297 622 317 q 553 276 582 276 q 504 297 525 276 q 483 346 483 317 q 504 394 483 374 q 553 415 525 415 q 602 394 582 415 q 622 346 622 374 m 899 657 q 885 590 899 621 q 849 535 872 558 q 794 497 825 511 q 726 483 763 483 q 658 497 690 483 q 603 533 626 510 q 566 589 579 557 q 553 657 553 621 q 540 590 553 621 q 503 535 526 558 q 448 497 479 511 q 381 483 417 483 q 313 497 344 483 q 257 533 281 510 q 220 589 233 557 q 207 657 207 621 q 221 724 207 693 q 258 779 235 756 q 313 816 282 803 q 381 829 344 829 q 447 815 415 829 q 501 778 478 801 q 539 723 525 754 q 553 657 553 692 q 567 724 553 693 q 604 779 581 756 q 659 816 628 803 q 726 829 690 829 q 792 815 761 829 q 847 778 824 801 q 885 723 871 754 q 899 657 899 692 m 1038 553 q 999 740 1038 651 q 894 894 960 828 q 740 999 828 960 q 553 1038 651 1038 q 366 999 454 1038 q 212 895 278 961 q 108 741 146 829 q 69 553 69 653 q 108 365 69 453 q 212 212 146 278 q 365 108 278 146 q 553 69 453 69 q 741 108 653 69 q 895 212 829 146 q 999 366 961 278 q 1038 553 1038 454 m 1106 553 q 1062 340 1106 440 q 943 163 1018 239 q 767 44 868 88 q 553 0 667 0 q 338 44 439 0 q 163 163 238 88 q 44 338 88 238 q 0 553 0 439 q 23 708 0 633 q 88 849 46 783 q 188 967 129 914 q 319 1054 247 1019 l 276 1097 l 424 1244 l 472 1196 l 340 1064 q 553 1106 442 1106 q 746 1071 658 1106 l 622 1196 l 671 1244 l 818 1097 l 778 1058 q 913 972 853 1025 q 1016 853 974 919 q 1082 710 1058 786 q 1106 553 1106 633 z "},"w":{"ha":1196,"x_min":0,"x_max":1106,"o":"m 467 696 q 441 756 467 731 q 381 782 415 782 q 319 756 344 782 q 294 696 294 731 q 319 634 294 660 q 381 608 344 608 q 441 634 415 608 q 467 696 467 660 m 813 696 q 787 756 813 731 q 726 782 761 782 q 665 756 690 782 q 639 696 639 731 q 665 634 639 660 q 726 608 690 608 q 787 634 761 608 q 813 696 813 660 m 899 696 q 885 628 899 660 q 849 574 872 597 q 794 536 825 550 q 726 522 763 522 q 658 535 690 522 q 603 572 626 549 q 566 628 579 596 q 553 696 553 660 q 540 628 553 660 q 503 574 526 597 q 448 536 479 550 q 381 522 417 522 q 313 535 344 522 q 257 572 281 549 q 220 628 233 596 q 207 696 207 660 q 221 763 207 732 q 258 818 235 794 q 313 855 282 842 q 381 868 344 868 q 447 854 415 868 q 501 817 478 840 q 539 762 525 793 q 553 696 553 731 q 567 763 553 732 q 604 818 581 794 q 659 855 628 842 q 726 868 690 868 q 792 854 761 868 q 847 817 824 840 q 885 762 871 793 q 899 696 899 731 m 828 242 q 803 314 828 272 q 699 240 761 268 q 790 204 751 204 q 828 242 828 204 m 1038 553 q 999 740 1038 651 q 894 894 960 828 q 740 999 828 960 q 553 1038 651 1038 q 366 999 454 1038 q 212 895 278 961 q 108 741 146 829 q 69 553 69 653 q 108 365 69 453 q 212 212 146 278 q 365 108 278 146 q 553 69 453 69 q 797 136 685 69 l 776 135 q 622 214 701 135 l 624 214 q 586 209 604 211 q 553 207 568 207 q 419 235 482 207 q 309 309 356 263 q 235 419 263 356 q 207 553 207 482 l 276 553 q 298 445 276 496 q 357 357 319 394 q 445 298 394 319 q 553 276 496 276 q 659 299 608 276 q 747 358 710 321 q 807 446 785 396 q 829 553 829 496 l 899 553 q 849 374 899 454 q 896 243 896 310 q 892 207 896 224 q 1038 553 1038 350 m 1106 553 q 1062 340 1106 440 q 943 163 1018 239 q 767 44 868 88 q 553 0 667 0 q 338 44 439 0 q 163 163 238 88 q 44 338 88 238 q 0 553 0 439 q 23 708 0 633 q 88 849 46 783 q 188 967 129 914 q 319 1054 247 1019 l 276 1097 l 424 1244 l 472 1196 l 340 1064 q 553 1106 442 1106 q 746 1071 658 1106 l 622 1196 l 671 1244 l 818 1097 l 778 1058 q 913 972 853 1025 q 1016 853 974 919 q 1082 710 1058 786 q 1106 553 1106 633 z "},"x":{"ha":1213,"x_min":0,"x_max":1111,"o":"m 903 556 q 875 422 903 485 q 800 311 847 358 q 690 236 753 264 q 556 208 626 208 q 420 235 483 208 q 310 310 357 263 q 235 420 263 357 q 208 556 208 483 l 278 556 q 300 448 278 499 q 360 360 322 397 q 448 300 397 322 q 556 278 499 278 q 663 300 613 278 q 751 360 714 322 q 811 448 789 397 q 833 556 833 499 l 903 556 m 486 660 q 456 586 486 617 q 382 556 425 556 q 308 586 339 556 q 278 660 278 617 q 308 733 278 703 q 382 764 339 764 q 456 733 425 764 q 486 660 486 703 m 833 660 q 803 586 833 617 q 729 556 772 556 q 656 586 686 556 q 625 660 625 617 q 656 733 625 703 q 729 764 686 764 q 803 733 772 764 q 833 660 833 703 m 1042 556 q 994 768 1042 668 q 858 936 946 868 q 556 903 718 903 q 254 936 392 903 q 118 768 167 868 q 69 556 69 668 q 108 367 69 456 q 212 212 146 278 q 367 108 278 146 q 556 69 456 69 q 745 108 657 69 q 899 214 833 147 q 1003 369 965 281 q 1042 556 1042 457 m 779 988 q 556 1042 672 1042 q 333 988 438 1042 q 441 976 386 981 q 556 972 496 972 q 671 976 615 972 q 779 988 726 981 m 1042 1111 q 1001 1167 1042 1142 q 892 1210 960 1192 q 737 1240 825 1229 q 556 1250 649 1250 q 375 1240 463 1250 q 219 1210 288 1229 q 110 1167 151 1192 q 69 1111 69 1142 q 232 1008 69 1047 q 556 1111 381 1111 q 879 1008 735 1111 q 1042 1111 1042 1047 m 1111 556 q 1067 341 1111 442 q 949 165 1024 240 q 772 44 874 89 q 556 0 671 0 q 340 44 440 0 q 163 163 239 88 q 44 340 88 239 q 0 556 0 440 q 175 960 0 794 q 0 1111 0 1019 q 47 1195 0 1157 q 173 1261 94 1233 q 351 1304 251 1289 q 556 1319 451 1319 q 760 1304 660 1319 q 938 1261 860 1289 q 1064 1195 1017 1233 q 1111 1111 1111 1157 q 938 960 1111 1021 q 1111 556 1111 794 z "},"y":{"ha":1204,"x_min":0,"x_max":1106,"o":"m 899 553 q 871 419 899 482 q 797 309 843 356 q 687 235 750 263 q 553 207 624 207 q 419 235 482 207 q 309 309 356 263 q 235 419 263 356 q 207 553 207 482 l 276 553 q 298 445 276 496 q 357 357 319 394 q 445 298 394 319 q 553 276 496 276 q 659 299 608 276 q 747 358 710 321 q 807 446 785 396 q 829 553 829 496 l 899 553 m 483 657 q 453 583 483 614 q 381 553 422 553 q 307 583 338 553 q 276 657 276 614 q 306 729 276 699 q 378 760 336 760 l 289 850 l 338 899 l 483 753 l 457 726 q 483 657 483 696 m 829 657 q 799 583 829 614 q 726 553 768 553 q 653 583 683 553 q 622 657 622 614 q 654 732 622 700 l 635 753 l 781 899 l 829 850 l 739 760 q 803 725 778 754 q 829 657 829 696 m 1038 553 q 999 740 1038 651 q 894 894 960 828 q 740 999 828 960 q 553 1038 651 1038 q 366 999 454 1038 q 212 895 278 961 q 108 741 146 829 q 69 553 69 653 q 108 365 69 453 q 212 212 146 278 q 365 108 278 146 q 553 69 453 69 q 741 108 653 69 q 895 212 829 146 q 999 366 961 278 q 1038 553 1038 454 m 1106 553 q 1062 340 1106 440 q 943 163 1018 239 q 767 44 868 88 q 553 0 667 0 q 338 44 439 0 q 163 163 238 88 q 44 338 88 238 q 0 553 0 439 q 139 918 0 763 l 139 1244 l 367 1074 q 553 1106 463 1106 q 729 1078 638 1106 l 979 1244 l 961 926 q 1106 553 1106 765 z "},"z":{"ha":1206,"x_min":0,"x_max":1111,"o":"m 764 417 l 694 278 l 625 417 l 486 417 l 417 278 l 347 417 l 286 417 q 324 333 297 371 q 386 267 350 294 q 466 224 422 239 q 556 208 510 208 q 645 224 601 208 q 725 267 689 239 q 788 333 761 294 q 825 417 814 371 l 764 417 m 903 486 q 875 352 903 415 q 800 242 847 289 q 690 167 753 194 q 556 139 626 139 q 420 166 483 139 q 310 240 357 193 q 235 351 263 288 q 208 486 208 414 l 903 486 m 486 683 q 456 610 486 640 q 382 579 425 579 q 308 610 339 579 q 278 683 278 640 q 301 748 278 719 q 358 785 324 776 l 290 854 l 339 903 l 486 756 l 469 739 q 486 683 486 714 m 833 683 q 803 610 833 640 q 729 579 772 579 q 656 610 686 579 q 625 683 625 640 q 651 753 625 722 l 638 767 l 785 914 l 833 865 l 753 785 q 810 748 788 776 q 833 683 833 719 m 1042 556 q 1003 744 1042 656 q 898 898 964 832 q 744 1003 832 964 q 556 1042 656 1042 q 369 1003 457 1042 q 214 899 281 965 q 108 745 147 833 q 69 556 69 657 q 108 367 69 456 q 212 212 146 278 q 367 108 278 146 q 556 69 456 69 q 745 108 657 69 q 899 214 833 147 q 1003 369 965 281 q 1042 556 1042 457 m 1111 556 q 1067 340 1111 440 q 948 163 1024 239 q 771 44 872 88 q 556 0 669 0 q 340 44 440 0 q 163 163 239 88 q 44 340 88 239 q 0 556 0 440 q 44 771 0 669 q 163 948 88 872 q 340 1067 239 1024 q 556 1111 440 1111 q 771 1067 669 1111 q 948 948 872 1024 q 1067 771 1024 872 q 1111 556 1111 669 z "},"{":{"ha":1206,"x_min":0,"x_max":1111,"o":"m 903 417 l 833 417 l 764 278 l 694 417 l 417 417 l 347 278 l 278 417 l 208 417 l 208 486 l 903 486 l 903 417 m 486 660 q 456 586 486 617 q 382 556 425 556 q 308 586 339 556 q 278 660 278 617 q 308 732 278 701 q 379 764 338 763 l 290 854 l 339 903 l 486 756 l 460 729 q 486 660 486 699 m 833 660 q 803 586 833 617 q 729 556 772 556 q 656 586 686 556 q 625 660 625 617 q 657 735 625 703 l 638 756 l 785 903 l 833 854 l 743 763 q 807 728 781 758 q 833 660 833 699 m 1042 556 q 1003 744 1042 656 q 898 898 964 832 q 744 1003 832 964 q 556 1042 656 1042 q 369 1003 457 1042 q 214 899 281 965 q 108 745 147 833 q 69 556 69 657 q 108 367 69 456 q 212 212 146 278 q 367 108 278 146 q 556 69 456 69 q 745 108 657 69 q 899 214 833 147 q 1003 369 965 281 q 1042 556 1042 457 m 1111 556 q 1067 340 1111 440 q 948 163 1024 239 q 771 44 872 88 q 556 0 669 0 q 340 44 440 0 q 163 163 239 88 q 44 340 88 239 q 0 556 0 440 q 44 771 0 669 q 163 948 88 872 q 340 1067 239 1024 q 556 1111 440 1111 q 771 1067 669 1111 q 948 948 872 1024 q 1067 771 1024 872 q 1111 556 1111 669 z "},"|":{"ha":1207,"x_min":0,"x_max":1111,"o":"m 833 347 l 278 347 l 278 417 l 833 417 l 833 347 m 486 660 q 456 586 486 617 q 382 556 425 556 q 308 586 339 556 q 278 660 278 617 q 308 733 278 703 q 382 764 339 764 q 456 733 425 764 q 486 660 486 703 m 833 660 q 803 586 833 617 q 729 556 772 556 q 656 586 686 556 q 625 660 625 617 q 656 733 625 703 q 729 764 686 764 q 803 733 772 764 q 833 660 833 703 m 1042 556 q 1003 744 1042 656 q 898 898 964 832 q 744 1003 832 964 q 556 1042 656 1042 q 369 1003 457 1042 q 214 899 281 965 q 108 745 147 833 q 69 556 69 657 q 108 367 69 456 q 212 212 146 278 q 367 108 278 146 q 556 69 456 69 q 745 108 657 69 q 899 214 833 147 q 1003 369 965 281 q 1042 556 1042 457 m 1111 556 q 1067 340 1111 440 q 948 163 1024 239 q 771 44 872 88 q 556 0 669 0 q 340 44 440 0 q 163 163 239 88 q 44 340 88 239 q 0 556 0 440 q 44 771 0 669 q 163 948 88 872 q 340 1067 239 1024 q 556 1111 440 1111 q 771 1067 669 1111 q 948 948 872 1024 q 1067 771 1024 872 q 1111 556 1111 669 z "},"}":{"ha":1204,"x_min":0,"x_max":1106,"o":"m 761 404 l 692 265 l 622 404 l 483 404 l 415 265 l 346 404 l 285 404 q 322 320 296 358 q 383 254 347 282 q 462 211 418 226 q 553 196 506 196 q 642 211 599 196 q 722 254 686 226 q 784 320 758 282 q 821 404 810 358 l 761 404 m 899 472 q 871 339 899 401 q 797 230 843 276 q 687 156 750 183 q 553 128 624 128 q 419 156 482 128 q 309 230 356 183 q 235 339 263 276 q 207 472 207 401 l 899 472 m 483 668 q 453 596 483 626 q 381 565 422 565 q 307 596 338 565 q 276 668 276 626 q 299 733 276 704 q 357 769 322 761 l 289 839 l 338 888 l 483 740 l 468 725 q 483 668 483 697 m 829 668 q 799 596 829 626 q 726 565 768 565 q 653 596 683 565 q 622 668 622 626 q 649 738 622 711 l 635 753 l 781 899 l 829 850 l 750 769 q 807 733 785 761 q 829 668 829 704 m 1038 553 q 999 740 1038 651 q 894 894 960 828 q 740 999 828 960 q 553 1038 651 1038 q 366 999 454 1038 q 212 895 278 961 q 108 741 146 829 q 69 553 69 653 q 108 365 69 453 q 212 212 146 278 q 365 108 278 146 q 553 69 453 69 q 741 108 653 69 q 895 212 829 146 q 999 366 961 278 q 1038 553 1038 454 m 1106 553 q 1062 340 1106 440 q 943 163 1018 239 q 767 44 868 88 q 553 0 667 0 q 338 44 439 0 q 163 163 238 88 q 44 338 88 238 q 0 553 0 439 q 139 918 0 763 l 139 1244 l 367 1074 q 553 1106 463 1106 q 729 1078 638 1106 l 979 1244 l 961 926 q 1106 553 1106 765 z "},"~":{"ha":603,"x_min":0,"x_max":0,"o":""},"":{"ha":1206,"x_min":0,"x_max":1111,"o":"m 1111 556 q 1067 340 1111 440 q 948 163 1024 239 q 771 44 872 88 q 556 0 669 0 q 340 44 440 0 q 163 163 239 88 q 44 340 88 239 q 0 556 0 440 q 44 771 0 669 q 163 948 88 872 q 340 1067 239 1024 q 556 1111 440 1111 q 771 1067 669 1111 q 948 948 872 1024 q 1067 771 1024 872 q 1111 556 1111 669 m 903 556 q 875 689 903 626 q 799 799 847 751 q 689 875 751 847 q 556 903 626 903 q 422 875 485 903 q 311 800 358 847 q 236 690 264 753 q 208 556 208 626 q 235 420 208 483 q 310 310 263 357 q 420 235 357 263 q 556 208 483 208 q 690 236 626 208 q 800 311 753 264 q 875 422 847 358 q 903 556 903 485 m 694 556 q 683 501 694 526 q 653 456 672 475 q 610 427 635 438 q 556 417 585 417 q 456 456 496 417 q 417 556 417 496 q 427 610 417 585 q 456 653 438 635 q 501 683 475 672 q 556 694 526 694 q 654 654 614 694 q 694 556 694 614 z "},"":{"ha":1206,"x_min":0,"x_max":1111,"o":"m 232 682 q 208 556 208 615 q 235 420 208 483 q 310 310 263 357 q 420 235 357 263 q 556 208 483 208 q 682 232 615 208 l 232 682 m 903 556 q 875 689 903 626 q 799 799 847 751 q 689 875 751 847 q 556 903 626 903 q 429 879 496 903 l 879 429 q 903 556 903 496 m 1111 556 q 1067 340 1111 440 q 948 163 1024 239 q 771 44 872 88 q 556 0 669 0 q 340 44 440 0 q 163 163 239 88 q 44 340 88 239 q 0 556 0 440 q 44 771 0 669 q 163 948 88 872 q 340 1067 239 1024 q 556 1111 440 1111 q 771 1067 669 1111 q 948 948 872 1024 q 1067 771 1024 872 q 1111 556 1111 669 z "}}}
